solid OpenSCAD_Model
  facet normal 0.999507 0.0314107 0
    outer loop
      vertex 25 0 2.5
      vertex 24.9507 1.56976 -2.5
      vertex 24.9507 1.56976 2.5
    endloop
  endfacet
  facet normal 0.999507 0.0314107 0
    outer loop
      vertex 24.9507 1.56976 -2.5
      vertex 25 0 2.5
      vertex 25 0 -2.5
    endloop
  endfacet
  facet normal 0.707107 0.707107 0
    outer loop
      vertex 18.2242 17.1137 2.5
      vertex 17.1137 18.2242 -2.5
      vertex 17.1137 18.2242 2.5
    endloop
  endfacet
  facet normal 0.707107 0.707107 0
    outer loop
      vertex 17.1137 18.2242 -2.5
      vertex 18.2242 17.1137 2.5
      vertex 18.2242 17.1137 -2.5
    endloop
  endfacet
  facet normal -0.827081 -0.562082 0
    outer loop
      vertex -20.2254 -14.6946 -2.5
      vertex -21.1082 -13.3957 2.5
      vertex -21.1082 -13.3957 -2.5
    endloop
  endfacet
  facet normal -0.827081 -0.562082 0
    outer loop
      vertex -21.1082 -13.3957 2.5
      vertex -20.2254 -14.6946 -2.5
      vertex -20.2254 -14.6946 2.5
    endloop
  endfacet
  facet normal 0.960294 0.278991 0
    outer loop
      vertex 24.2146 6.21725 2.5
      vertex 23.7764 7.72542 -2.5
      vertex 23.7764 7.72542 2.5
    endloop
  endfacet
  facet normal 0.960294 0.278991 0
    outer loop
      vertex 23.7764 7.72542 -2.5
      vertex 24.2146 6.21725 2.5
      vertex 24.2146 6.21725 -2.5
    endloop
  endfacet
  facet normal 0.397148 0.917755 -0
    outer loop
      vertex 10.6445 22.6207 -2.5
      vertex 9.20311 23.2444 2.5
      vertex 10.6445 22.6207 2.5
    endloop
  endfacet
  facet normal 0.397148 0.917755 0
    outer loop
      vertex 9.20311 23.2444 2.5
      vertex 10.6445 22.6207 -2.5
      vertex 9.20311 23.2444 -2.5
    endloop
  endfacet
  facet normal -0.827081 0.562082 0
    outer loop
      vertex -21.1082 13.3957 -2.5
      vertex -20.2254 14.6946 2.5
      vertex -20.2254 14.6946 -2.5
    endloop
  endfacet
  facet normal -0.827081 0.562082 0
    outer loop
      vertex -20.2254 14.6946 2.5
      vertex -21.1082 13.3957 -2.5
      vertex -21.1082 13.3957 2.5
    endloop
  endfacet
  facet normal -0.612907 0.790155 0
    outer loop
      vertex -14.6946 20.2254 -2.5
      vertex -15.9356 19.2628 2.5
      vertex -14.6946 20.2254 2.5
    endloop
  endfacet
  facet normal -0.612907 0.790155 0
    outer loop
      vertex -15.9356 19.2628 2.5
      vertex -14.6946 20.2254 -2.5
      vertex -15.9356 19.2628 -2.5
    endloop
  endfacet
  facet normal -0.278991 0.960294 0
    outer loop
      vertex -6.21725 24.2146 -2.5
      vertex -7.72542 23.7764 2.5
      vertex -6.21725 24.2146 2.5
    endloop
  endfacet
  facet normal -0.278991 0.960294 0
    outer loop
      vertex -7.72542 23.7764 2.5
      vertex -6.21725 24.2146 -2.5
      vertex -7.72542 23.7764 -2.5
    endloop
  endfacet
  facet normal 0.860742 -0.509042 0
    outer loop
      vertex 21.1082 -13.3957 2.5
      vertex 21.9077 -12.0438 -2.5
      vertex 21.9077 -12.0438 2.5
    endloop
  endfacet
  facet normal 0.860742 -0.509042 0
    outer loop
      vertex 21.9077 -12.0438 -2.5
      vertex 21.1082 -13.3957 2.5
      vertex 21.1082 -13.3957 -2.5
    endloop
  endfacet
  facet normal 0.278991 -0.960294 0
    outer loop
      vertex 6.21725 -24.2146 -2.5
      vertex 7.72542 -23.7764 2.5
      vertex 6.21725 -24.2146 2.5
    endloop
  endfacet
  facet normal 0.278991 -0.960294 0
    outer loop
      vertex 7.72542 -23.7764 2.5
      vertex 6.21725 -24.2146 -2.5
      vertex 7.72542 -23.7764 -2.5
    endloop
  endfacet
  facet normal 0.707107 -0.707107 0
    outer loop
      vertex 17.1137 -18.2242 2.5
      vertex 18.2242 -17.1137 -2.5
      vertex 18.2242 -17.1137 2.5
    endloop
  endfacet
  facet normal 0.707107 -0.707107 0
    outer loop
      vertex 18.2242 -17.1137 -2.5
      vertex 17.1137 -18.2242 2.5
      vertex 17.1137 -18.2242 -2.5
    endloop
  endfacet
  facet normal -0.397148 -0.917755 0
    outer loop
      vertex -10.6445 -22.6207 -2.5
      vertex -9.20311 -23.2444 2.5
      vertex -10.6445 -22.6207 2.5
    endloop
  endfacet
  facet normal -0.397148 -0.917755 -0
    outer loop
      vertex -9.20311 -23.2444 2.5
      vertex -10.6445 -22.6207 -2.5
      vertex -9.20311 -23.2444 -2.5
    endloop
  endfacet
  facet normal -0.860742 -0.509042 0
    outer loop
      vertex -21.1082 -13.3957 -2.5
      vertex -21.9077 -12.0438 2.5
      vertex -21.9077 -12.0438 -2.5
    endloop
  endfacet
  facet normal -0.860742 -0.509042 0
    outer loop
      vertex -21.9077 -12.0438 2.5
      vertex -21.1082 -13.3957 -2.5
      vertex -21.1082 -13.3957 2.5
    endloop
  endfacet
  facet normal 0.917755 0.397148 0
    outer loop
      vertex 23.2444 9.20311 2.5
      vertex 22.6207 10.6445 -2.5
      vertex 22.6207 10.6445 2.5
    endloop
  endfacet
  facet normal 0.917755 0.397148 0
    outer loop
      vertex 22.6207 10.6445 -2.5
      vertex 23.2444 9.20311 2.5
      vertex 23.2444 9.20311 -2.5
    endloop
  endfacet
  facet normal 0.891006 0.453991 0
    outer loop
      vertex 22.6207 10.6445 2.5
      vertex 21.9077 12.0438 -2.5
      vertex 21.9077 12.0438 2.5
    endloop
  endfacet
  facet normal 0.891006 0.453991 0
    outer loop
      vertex 21.9077 12.0438 -2.5
      vertex 22.6207 10.6445 2.5
      vertex 22.6207 10.6445 -2.5
    endloop
  endfacet
  facet normal 0.750112 0.661311 0
    outer loop
      vertex 19.2628 15.9356 2.5
      vertex 18.2242 17.1137 -2.5
      vertex 18.2242 17.1137 2.5
    endloop
  endfacet
  facet normal 0.750112 0.661311 0
    outer loop
      vertex 18.2242 17.1137 -2.5
      vertex 19.2628 15.9356 2.5
      vertex 19.2628 15.9356 -2.5
    endloop
  endfacet
  facet normal 0.218143 0.975917 -0
    outer loop
      vertex 6.21725 24.2146 -2.5
      vertex 4.68453 24.5572 2.5
      vertex 6.21725 24.2146 2.5
    endloop
  endfacet
  facet normal 0.218143 0.975917 0
    outer loop
      vertex 4.68453 24.5572 2.5
      vertex 6.21725 24.2146 -2.5
      vertex 4.68453 24.5572 -2.5
    endloop
  endfacet
  facet normal 0.612907 0.790155 -0
    outer loop
      vertex 15.9356 19.2628 -2.5
      vertex 14.6946 20.2254 2.5
      vertex 15.9356 19.2628 2.5
    endloop
  endfacet
  facet normal 0.612907 0.790155 0
    outer loop
      vertex 14.6946 20.2254 2.5
      vertex 15.9356 19.2628 -2.5
      vertex 14.6946 20.2254 -2.5
    endloop
  endfacet
  facet normal 0.453991 0.891006 -0
    outer loop
      vertex 12.0438 21.9077 -2.5
      vertex 10.6445 22.6207 2.5
      vertex 12.0438 21.9077 2.5
    endloop
  endfacet
  facet normal 0.453991 0.891006 0
    outer loop
      vertex 10.6445 22.6207 2.5
      vertex 12.0438 21.9077 -2.5
      vertex 10.6445 22.6207 -2.5
    endloop
  endfacet
  facet normal 0.562082 0.827081 -0
    outer loop
      vertex 14.6946 20.2254 -2.5
      vertex 13.3957 21.1082 2.5
      vertex 14.6946 20.2254 2.5
    endloop
  endfacet
  facet normal 0.562082 0.827081 0
    outer loop
      vertex 13.3957 21.1082 2.5
      vertex 14.6946 20.2254 -2.5
      vertex 13.3957 21.1082 -2.5
    endloop
  endfacet
  facet normal -0.960294 0.278991 0
    outer loop
      vertex -24.2146 6.21725 -2.5
      vertex -23.7764 7.72542 2.5
      vertex -23.7764 7.72542 -2.5
    endloop
  endfacet
  facet normal -0.960294 0.278991 0
    outer loop
      vertex -23.7764 7.72542 2.5
      vertex -24.2146 6.21725 -2.5
      vertex -24.2146 6.21725 2.5
    endloop
  endfacet
  facet normal -0.707107 0.707107 0
    outer loop
      vertex -18.2242 17.1137 -2.5
      vertex -17.1137 18.2242 2.5
      vertex -17.1137 18.2242 -2.5
    endloop
  endfacet
  facet normal -0.707107 0.707107 0
    outer loop
      vertex -17.1137 18.2242 2.5
      vertex -18.2242 17.1137 -2.5
      vertex -18.2242 17.1137 2.5
    endloop
  endfacet
  facet normal -0.891006 0.453991 0
    outer loop
      vertex -22.6207 10.6445 -2.5
      vertex -21.9077 12.0438 2.5
      vertex -21.9077 12.0438 -2.5
    endloop
  endfacet
  facet normal -0.891006 0.453991 0
    outer loop
      vertex -21.9077 12.0438 2.5
      vertex -22.6207 10.6445 -2.5
      vertex -22.6207 10.6445 2.5
    endloop
  endfacet
  facet normal -0.917755 0.397148 0
    outer loop
      vertex -23.2444 9.20311 -2.5
      vertex -22.6207 10.6445 2.5
      vertex -22.6207 10.6445 -2.5
    endloop
  endfacet
  facet normal -0.917755 0.397148 0
    outer loop
      vertex -22.6207 10.6445 2.5
      vertex -23.2444 9.20311 -2.5
      vertex -23.2444 9.20311 2.5
    endloop
  endfacet
  facet normal -0.987688 0.156435 0
    outer loop
      vertex -24.8029 3.13333 -2.5
      vertex -24.5572 4.68453 2.5
      vertex -24.5572 4.68453 -2.5
    endloop
  endfacet
  facet normal -0.987688 0.156435 0
    outer loop
      vertex -24.5572 4.68453 2.5
      vertex -24.8029 3.13333 -2.5
      vertex -24.8029 3.13333 2.5
    endloop
  endfacet
  facet normal -0.509042 0.860742 0
    outer loop
      vertex -12.0438 21.9077 -2.5
      vertex -13.3957 21.1082 2.5
      vertex -12.0438 21.9077 2.5
    endloop
  endfacet
  facet normal -0.509042 0.860742 0
    outer loop
      vertex -13.3957 21.1082 2.5
      vertex -12.0438 21.9077 -2.5
      vertex -13.3957 21.1082 -2.5
    endloop
  endfacet
  facet normal -0.397148 0.917755 0
    outer loop
      vertex -9.20311 23.2444 -2.5
      vertex -10.6445 22.6207 2.5
      vertex -9.20311 23.2444 2.5
    endloop
  endfacet
  facet normal -0.397148 0.917755 0
    outer loop
      vertex -10.6445 22.6207 2.5
      vertex -9.20311 23.2444 -2.5
      vertex -10.6445 22.6207 -2.5
    endloop
  endfacet
  facet normal -0.562082 0.827081 0
    outer loop
      vertex -13.3957 21.1082 -2.5
      vertex -14.6946 20.2254 2.5
      vertex -13.3957 21.1082 2.5
    endloop
  endfacet
  facet normal -0.562082 0.827081 0
    outer loop
      vertex -14.6946 20.2254 2.5
      vertex -13.3957 21.1082 -2.5
      vertex -14.6946 20.2254 -2.5
    endloop
  endfacet
  facet normal -0.0941082 0.995562 0
    outer loop
      vertex -1.56976 24.9507 -2.5
      vertex -3.13333 24.8029 2.5
      vertex -1.56976 24.9507 2.5
    endloop
  endfacet
  facet normal -0.0941082 0.995562 0
    outer loop
      vertex -3.13333 24.8029 2.5
      vertex -1.56976 24.9507 -2.5
      vertex -3.13333 24.8029 -2.5
    endloop
  endfacet
  facet normal -0.218143 0.975917 0
    outer loop
      vertex -4.68453 24.5572 -2.5
      vertex -6.21725 24.2146 2.5
      vertex -4.68453 24.5572 2.5
    endloop
  endfacet
  facet normal -0.218143 0.975917 0
    outer loop
      vertex -6.21725 24.2146 2.5
      vertex -4.68453 24.5572 -2.5
      vertex -6.21725 24.2146 -2.5
    endloop
  endfacet
  facet normal -0.156435 0.987688 0
    outer loop
      vertex -3.13333 24.8029 -2.5
      vertex -4.68453 24.5572 2.5
      vertex -3.13333 24.8029 2.5
    endloop
  endfacet
  facet normal -0.156435 0.987688 0
    outer loop
      vertex -4.68453 24.5572 2.5
      vertex -3.13333 24.8029 -2.5
      vertex -4.68453 24.5572 -2.5
    endloop
  endfacet
  facet normal 0.453991 -0.891006 0
    outer loop
      vertex 10.6445 -22.6207 -2.5
      vertex 12.0438 -21.9077 2.5
      vertex 10.6445 -22.6207 2.5
    endloop
  endfacet
  facet normal 0.453991 -0.891006 0
    outer loop
      vertex 12.0438 -21.9077 2.5
      vertex 10.6445 -22.6207 -2.5
      vertex 12.0438 -21.9077 -2.5
    endloop
  endfacet
  facet normal 0.827081 -0.562082 0
    outer loop
      vertex 20.2254 -14.6946 2.5
      vertex 21.1082 -13.3957 -2.5
      vertex 21.1082 -13.3957 2.5
    endloop
  endfacet
  facet normal 0.827081 -0.562082 0
    outer loop
      vertex 21.1082 -13.3957 -2.5
      vertex 20.2254 -14.6946 2.5
      vertex 20.2254 -14.6946 -2.5
    endloop
  endfacet
  facet normal 0.999507 -0.0314107 0
    outer loop
      vertex 24.9507 -1.56976 2.5
      vertex 25 0 -2.5
      vertex 25 0 2.5
    endloop
  endfacet
  facet normal 0.999507 -0.0314107 0
    outer loop
      vertex 25 0 -2.5
      vertex 24.9507 -1.56976 2.5
      vertex 24.9507 -1.56976 -2.5
    endloop
  endfacet
  facet normal -0.0314107 -0.999507 0
    outer loop
      vertex -1.56976 -24.9507 -2.5
      vertex 0 -25 2.5
      vertex -1.56976 -24.9507 2.5
    endloop
  endfacet
  facet normal -0.0314107 -0.999507 -0
    outer loop
      vertex 0 -25 2.5
      vertex -1.56976 -24.9507 -2.5
      vertex 0 -25 -2.5
    endloop
  endfacet
  facet normal -0.707107 -0.707107 0
    outer loop
      vertex -17.1137 -18.2242 -2.5
      vertex -18.2242 -17.1137 2.5
      vertex -18.2242 -17.1137 -2.5
    endloop
  endfacet
  facet normal -0.707107 -0.707107 0
    outer loop
      vertex -18.2242 -17.1137 2.5
      vertex -17.1137 -18.2242 -2.5
      vertex -17.1137 -18.2242 2.5
    endloop
  endfacet
  facet normal -0.0941082 -0.995562 0
    outer loop
      vertex -3.13333 -24.8029 -2.5
      vertex -1.56976 -24.9507 2.5
      vertex -3.13333 -24.8029 2.5
    endloop
  endfacet
  facet normal -0.0941082 -0.995562 -0
    outer loop
      vertex -1.56976 -24.9507 2.5
      vertex -3.13333 -24.8029 -2.5
      vertex -1.56976 -24.9507 -2.5
    endloop
  endfacet
  facet normal -0.612907 -0.790155 0
    outer loop
      vertex -15.9356 -19.2628 -2.5
      vertex -14.6946 -20.2254 2.5
      vertex -15.9356 -19.2628 2.5
    endloop
  endfacet
  facet normal -0.612907 -0.790155 -0
    outer loop
      vertex -14.6946 -20.2254 2.5
      vertex -15.9356 -19.2628 -2.5
      vertex -14.6946 -20.2254 -2.5
    endloop
  endfacet
  facet normal -0.790155 -0.612907 0
    outer loop
      vertex -19.2628 -15.9356 -2.5
      vertex -20.2254 -14.6946 2.5
      vertex -20.2254 -14.6946 -2.5
    endloop
  endfacet
  facet normal -0.790155 -0.612907 0
    outer loop
      vertex -20.2254 -14.6946 2.5
      vertex -19.2628 -15.9356 -2.5
      vertex -19.2628 -15.9356 2.5
    endloop
  endfacet
  facet normal -0.917755 -0.397148 0
    outer loop
      vertex -22.6207 -10.6445 -2.5
      vertex -23.2444 -9.20311 2.5
      vertex -23.2444 -9.20311 -2.5
    endloop
  endfacet
  facet normal -0.917755 -0.397148 0
    outer loop
      vertex -23.2444 -9.20311 2.5
      vertex -22.6207 -10.6445 -2.5
      vertex -22.6207 -10.6445 2.5
    endloop
  endfacet
  facet normal -0.975917 -0.218143 0
    outer loop
      vertex -24.2146 -6.21725 -2.5
      vertex -24.5572 -4.68453 2.5
      vertex -24.5572 -4.68453 -2.5
    endloop
  endfacet
  facet normal -0.975917 -0.218143 0
    outer loop
      vertex -24.5572 -4.68453 2.5
      vertex -24.2146 -6.21725 -2.5
      vertex -24.2146 -6.21725 2.5
    endloop
  endfacet
  facet normal 0.940881 0.338738 0
    outer loop
      vertex 23.7764 7.72542 2.5
      vertex 23.2444 9.20311 -2.5
      vertex 23.2444 9.20311 2.5
    endloop
  endfacet
  facet normal 0.940881 0.338738 0
    outer loop
      vertex 23.2444 9.20311 -2.5
      vertex 23.7764 7.72542 2.5
      vertex 23.7764 7.72542 -2.5
    endloop
  endfacet
  facet normal 0.790155 0.612907 0
    outer loop
      vertex 20.2254 14.6946 2.5
      vertex 19.2628 15.9356 -2.5
      vertex 19.2628 15.9356 2.5
    endloop
  endfacet
  facet normal 0.790155 0.612907 0
    outer loop
      vertex 19.2628 15.9356 -2.5
      vertex 20.2254 14.6946 2.5
      vertex 20.2254 14.6946 -2.5
    endloop
  endfacet
  facet normal 0.860742 0.509042 0
    outer loop
      vertex 21.9077 12.0438 2.5
      vertex 21.1082 13.3957 -2.5
      vertex 21.1082 13.3957 2.5
    endloop
  endfacet
  facet normal 0.860742 0.509042 0
    outer loop
      vertex 21.1082 13.3957 -2.5
      vertex 21.9077 12.0438 2.5
      vertex 21.9077 12.0438 -2.5
    endloop
  endfacet
  facet normal 0.827081 0.562082 0
    outer loop
      vertex 21.1082 13.3957 2.5
      vertex 20.2254 14.6946 -2.5
      vertex 20.2254 14.6946 2.5
    endloop
  endfacet
  facet normal 0.827081 0.562082 0
    outer loop
      vertex 20.2254 14.6946 -2.5
      vertex 21.1082 13.3957 2.5
      vertex 21.1082 13.3957 -2.5
    endloop
  endfacet
  facet normal 0.0314107 0.999507 -0
    outer loop
      vertex 1.56976 24.9507 -2.5
      vertex 0 25 2.5
      vertex 1.56976 24.9507 2.5
    endloop
  endfacet
  facet normal 0.0314107 0.999507 0
    outer loop
      vertex 0 25 2.5
      vertex 1.56976 24.9507 -2.5
      vertex 0 25 -2.5
    endloop
  endfacet
  facet normal 0.338738 0.940881 -0
    outer loop
      vertex 9.20311 23.2444 -2.5
      vertex 7.72542 23.7764 2.5
      vertex 9.20311 23.2444 2.5
    endloop
  endfacet
  facet normal 0.338738 0.940881 0
    outer loop
      vertex 7.72542 23.7764 2.5
      vertex 9.20311 23.2444 -2.5
      vertex 7.72542 23.7764 -2.5
    endloop
  endfacet
  facet normal 0.156435 0.987688 -0
    outer loop
      vertex 4.68453 24.5572 -2.5
      vertex 3.13333 24.8029 2.5
      vertex 4.68453 24.5572 2.5
    endloop
  endfacet
  facet normal 0.156435 0.987688 0
    outer loop
      vertex 3.13333 24.8029 2.5
      vertex 4.68453 24.5572 -2.5
      vertex 3.13333 24.8029 -2.5
    endloop
  endfacet
  facet normal 0.278991 0.960294 -0
    outer loop
      vertex 7.72542 23.7764 -2.5
      vertex 6.21725 24.2146 2.5
      vertex 7.72542 23.7764 2.5
    endloop
  endfacet
  facet normal 0.278991 0.960294 0
    outer loop
      vertex 6.21725 24.2146 2.5
      vertex 7.72542 23.7764 -2.5
      vertex 6.21725 24.2146 -2.5
    endloop
  endfacet
  facet normal 0.509042 0.860742 -0
    outer loop
      vertex 13.3957 21.1082 -2.5
      vertex 12.0438 21.9077 2.5
      vertex 13.3957 21.1082 2.5
    endloop
  endfacet
  facet normal 0.509042 0.860742 0
    outer loop
      vertex 12.0438 21.9077 2.5
      vertex 13.3957 21.1082 -2.5
      vertex 12.0438 21.9077 -2.5
    endloop
  endfacet
  facet normal 0.661311 0.750112 -0
    outer loop
      vertex 17.1137 18.2242 -2.5
      vertex 15.9356 19.2628 2.5
      vertex 17.1137 18.2242 2.5
    endloop
  endfacet
  facet normal 0.661311 0.750112 0
    outer loop
      vertex 15.9356 19.2628 2.5
      vertex 17.1137 18.2242 -2.5
      vertex 15.9356 19.2628 -2.5
    endloop
  endfacet
  facet normal -0.999507 0.0314107 0
    outer loop
      vertex -25 0 -2.5
      vertex -24.9507 1.56976 2.5
      vertex -24.9507 1.56976 -2.5
    endloop
  endfacet
  facet normal -0.999507 0.0314107 0
    outer loop
      vertex -24.9507 1.56976 2.5
      vertex -25 0 -2.5
      vertex -25 0 2.5
    endloop
  endfacet
  facet normal -0.860742 0.509042 0
    outer loop
      vertex -21.9077 12.0438 -2.5
      vertex -21.1082 13.3957 2.5
      vertex -21.1082 13.3957 -2.5
    endloop
  endfacet
  facet normal -0.860742 0.509042 0
    outer loop
      vertex -21.1082 13.3957 2.5
      vertex -21.9077 12.0438 -2.5
      vertex -21.9077 12.0438 2.5
    endloop
  endfacet
  facet normal -0.940881 0.338738 0
    outer loop
      vertex -23.7764 7.72542 -2.5
      vertex -23.2444 9.20311 2.5
      vertex -23.2444 9.20311 -2.5
    endloop
  endfacet
  facet normal -0.940881 0.338738 0
    outer loop
      vertex -23.2444 9.20311 2.5
      vertex -23.7764 7.72542 -2.5
      vertex -23.7764 7.72542 2.5
    endloop
  endfacet
  facet normal -0.975917 0.218143 0
    outer loop
      vertex -24.5572 4.68453 -2.5
      vertex -24.2146 6.21725 2.5
      vertex -24.2146 6.21725 -2.5
    endloop
  endfacet
  facet normal -0.975917 0.218143 0
    outer loop
      vertex -24.2146 6.21725 2.5
      vertex -24.5572 4.68453 -2.5
      vertex -24.5572 4.68453 2.5
    endloop
  endfacet
  facet normal -0.661311 0.750112 0
    outer loop
      vertex -15.9356 19.2628 -2.5
      vertex -17.1137 18.2242 2.5
      vertex -15.9356 19.2628 2.5
    endloop
  endfacet
  facet normal -0.661311 0.750112 0
    outer loop
      vertex -17.1137 18.2242 2.5
      vertex -15.9356 19.2628 -2.5
      vertex -17.1137 18.2242 -2.5
    endloop
  endfacet
  facet normal -0.453991 0.891006 0
    outer loop
      vertex -10.6445 22.6207 -2.5
      vertex -12.0438 21.9077 2.5
      vertex -10.6445 22.6207 2.5
    endloop
  endfacet
  facet normal -0.453991 0.891006 0
    outer loop
      vertex -12.0438 21.9077 2.5
      vertex -10.6445 22.6207 -2.5
      vertex -12.0438 21.9077 -2.5
    endloop
  endfacet
  facet normal -0.338738 0.940881 0
    outer loop
      vertex -7.72542 23.7764 -2.5
      vertex -9.20311 23.2444 2.5
      vertex -7.72542 23.7764 2.5
    endloop
  endfacet
  facet normal -0.338738 0.940881 0
    outer loop
      vertex -9.20311 23.2444 2.5
      vertex -7.72542 23.7764 -2.5
      vertex -9.20311 23.2444 -2.5
    endloop
  endfacet
  facet normal -0.0314107 0.999507 0
    outer loop
      vertex 0 25 -2.5
      vertex -1.56976 24.9507 2.5
      vertex 0 25 2.5
    endloop
  endfacet
  facet normal -0.0314107 0.999507 0
    outer loop
      vertex -1.56976 24.9507 2.5
      vertex 0 25 -2.5
      vertex -1.56976 24.9507 -2.5
    endloop
  endfacet
  facet normal 0.0314107 -0.999507 0
    outer loop
      vertex 0 -25 -2.5
      vertex 1.56976 -24.9507 2.5
      vertex 0 -25 2.5
    endloop
  endfacet
  facet normal 0.0314107 -0.999507 0
    outer loop
      vertex 1.56976 -24.9507 2.5
      vertex 0 -25 -2.5
      vertex 1.56976 -24.9507 -2.5
    endloop
  endfacet
  facet normal 0.156435 -0.987688 0
    outer loop
      vertex 3.13333 -24.8029 -2.5
      vertex 4.68453 -24.5572 2.5
      vertex 3.13333 -24.8029 2.5
    endloop
  endfacet
  facet normal 0.156435 -0.987688 0
    outer loop
      vertex 4.68453 -24.5572 2.5
      vertex 3.13333 -24.8029 -2.5
      vertex 4.68453 -24.5572 -2.5
    endloop
  endfacet
  facet normal 0.397148 -0.917755 0
    outer loop
      vertex 9.20311 -23.2444 -2.5
      vertex 10.6445 -22.6207 2.5
      vertex 9.20311 -23.2444 2.5
    endloop
  endfacet
  facet normal 0.397148 -0.917755 0
    outer loop
      vertex 10.6445 -22.6207 2.5
      vertex 9.20311 -23.2444 -2.5
      vertex 10.6445 -22.6207 -2.5
    endloop
  endfacet
  facet normal 0.612907 -0.790155 0
    outer loop
      vertex 14.6946 -20.2254 -2.5
      vertex 15.9356 -19.2628 2.5
      vertex 14.6946 -20.2254 2.5
    endloop
  endfacet
  facet normal 0.612907 -0.790155 0
    outer loop
      vertex 15.9356 -19.2628 2.5
      vertex 14.6946 -20.2254 -2.5
      vertex 15.9356 -19.2628 -2.5
    endloop
  endfacet
  facet normal 0.509042 -0.860742 0
    outer loop
      vertex 12.0438 -21.9077 -2.5
      vertex 13.3957 -21.1082 2.5
      vertex 12.0438 -21.9077 2.5
    endloop
  endfacet
  facet normal 0.509042 -0.860742 0
    outer loop
      vertex 13.3957 -21.1082 2.5
      vertex 12.0438 -21.9077 -2.5
      vertex 13.3957 -21.1082 -2.5
    endloop
  endfacet
  facet normal 0.562082 -0.827081 0
    outer loop
      vertex 13.3957 -21.1082 -2.5
      vertex 14.6946 -20.2254 2.5
      vertex 13.3957 -21.1082 2.5
    endloop
  endfacet
  facet normal 0.562082 -0.827081 0
    outer loop
      vertex 14.6946 -20.2254 2.5
      vertex 13.3957 -21.1082 -2.5
      vertex 14.6946 -20.2254 -2.5
    endloop
  endfacet
  facet normal 0.750112 -0.661311 0
    outer loop
      vertex 18.2242 -17.1137 2.5
      vertex 19.2628 -15.9356 -2.5
      vertex 19.2628 -15.9356 2.5
    endloop
  endfacet
  facet normal 0.750112 -0.661311 0
    outer loop
      vertex 19.2628 -15.9356 -2.5
      vertex 18.2242 -17.1137 2.5
      vertex 18.2242 -17.1137 -2.5
    endloop
  endfacet
  facet normal 0.790155 -0.612907 0
    outer loop
      vertex 19.2628 -15.9356 2.5
      vertex 20.2254 -14.6946 -2.5
      vertex 20.2254 -14.6946 2.5
    endloop
  endfacet
  facet normal 0.790155 -0.612907 0
    outer loop
      vertex 20.2254 -14.6946 -2.5
      vertex 19.2628 -15.9356 2.5
      vertex 19.2628 -15.9356 -2.5
    endloop
  endfacet
  facet normal 0.917755 -0.397148 0
    outer loop
      vertex 22.6207 -10.6445 2.5
      vertex 23.2444 -9.20311 -2.5
      vertex 23.2444 -9.20311 2.5
    endloop
  endfacet
  facet normal 0.917755 -0.397148 0
    outer loop
      vertex 23.2444 -9.20311 -2.5
      vertex 22.6207 -10.6445 2.5
      vertex 22.6207 -10.6445 -2.5
    endloop
  endfacet
  facet normal 0.975917 -0.218143 0
    outer loop
      vertex 24.2146 -6.21725 2.5
      vertex 24.5572 -4.68453 -2.5
      vertex 24.5572 -4.68453 2.5
    endloop
  endfacet
  facet normal 0.975917 -0.218143 0
    outer loop
      vertex 24.5572 -4.68453 -2.5
      vertex 24.2146 -6.21725 2.5
      vertex 24.2146 -6.21725 -2.5
    endloop
  endfacet
  facet normal 0.940881 -0.338738 0
    outer loop
      vertex 23.2444 -9.20311 2.5
      vertex 23.7764 -7.72542 -2.5
      vertex 23.7764 -7.72542 2.5
    endloop
  endfacet
  facet normal 0.940881 -0.338738 0
    outer loop
      vertex 23.7764 -7.72542 -2.5
      vertex 23.2444 -9.20311 2.5
      vertex 23.2444 -9.20311 -2.5
    endloop
  endfacet
  facet normal -0.338738 -0.940881 0
    outer loop
      vertex -9.20311 -23.2444 -2.5
      vertex -7.72542 -23.7764 2.5
      vertex -9.20311 -23.2444 2.5
    endloop
  endfacet
  facet normal -0.338738 -0.940881 -0
    outer loop
      vertex -7.72542 -23.7764 2.5
      vertex -9.20311 -23.2444 -2.5
      vertex -7.72542 -23.7764 -2.5
    endloop
  endfacet
  facet normal -0.218143 -0.975917 0
    outer loop
      vertex -6.21725 -24.2146 -2.5
      vertex -4.68453 -24.5572 2.5
      vertex -6.21725 -24.2146 2.5
    endloop
  endfacet
  facet normal -0.218143 -0.975917 -0
    outer loop
      vertex -4.68453 -24.5572 2.5
      vertex -6.21725 -24.2146 -2.5
      vertex -4.68453 -24.5572 -2.5
    endloop
  endfacet
  facet normal -0.562082 -0.827081 0
    outer loop
      vertex -14.6946 -20.2254 -2.5
      vertex -13.3957 -21.1082 2.5
      vertex -14.6946 -20.2254 2.5
    endloop
  endfacet
  facet normal -0.562082 -0.827081 -0
    outer loop
      vertex -13.3957 -21.1082 2.5
      vertex -14.6946 -20.2254 -2.5
      vertex -13.3957 -21.1082 -2.5
    endloop
  endfacet
  facet normal -0.453991 -0.891006 0
    outer loop
      vertex -12.0438 -21.9077 -2.5
      vertex -10.6445 -22.6207 2.5
      vertex -12.0438 -21.9077 2.5
    endloop
  endfacet
  facet normal -0.453991 -0.891006 -0
    outer loop
      vertex -10.6445 -22.6207 2.5
      vertex -12.0438 -21.9077 -2.5
      vertex -10.6445 -22.6207 -2.5
    endloop
  endfacet
  facet normal -0.661311 -0.750112 0
    outer loop
      vertex -17.1137 -18.2242 -2.5
      vertex -15.9356 -19.2628 2.5
      vertex -17.1137 -18.2242 2.5
    endloop
  endfacet
  facet normal -0.661311 -0.750112 -0
    outer loop
      vertex -15.9356 -19.2628 2.5
      vertex -17.1137 -18.2242 -2.5
      vertex -15.9356 -19.2628 -2.5
    endloop
  endfacet
  facet normal -0.750112 -0.661311 0
    outer loop
      vertex -18.2242 -17.1137 -2.5
      vertex -19.2628 -15.9356 2.5
      vertex -19.2628 -15.9356 -2.5
    endloop
  endfacet
  facet normal -0.750112 -0.661311 0
    outer loop
      vertex -19.2628 -15.9356 2.5
      vertex -18.2242 -17.1137 -2.5
      vertex -18.2242 -17.1137 2.5
    endloop
  endfacet
  facet normal -0.891006 -0.453991 0
    outer loop
      vertex -21.9077 -12.0438 -2.5
      vertex -22.6207 -10.6445 2.5
      vertex -22.6207 -10.6445 -2.5
    endloop
  endfacet
  facet normal -0.891006 -0.453991 0
    outer loop
      vertex -22.6207 -10.6445 2.5
      vertex -21.9077 -12.0438 -2.5
      vertex -21.9077 -12.0438 2.5
    endloop
  endfacet
  facet normal -0.987688 -0.156435 0
    outer loop
      vertex -24.5572 -4.68453 -2.5
      vertex -24.8029 -3.13333 2.5
      vertex -24.8029 -3.13333 -2.5
    endloop
  endfacet
  facet normal -0.987688 -0.156435 0
    outer loop
      vertex -24.8029 -3.13333 2.5
      vertex -24.5572 -4.68453 -2.5
      vertex -24.5572 -4.68453 2.5
    endloop
  endfacet
  facet normal -0.999507 -0.0314107 0
    outer loop
      vertex -24.9507 -1.56976 -2.5
      vertex -25 0 2.5
      vertex -25 0 -2.5
    endloop
  endfacet
  facet normal -0.999507 -0.0314107 0
    outer loop
      vertex -25 0 2.5
      vertex -24.9507 -1.56976 -2.5
      vertex -24.9507 -1.56976 2.5
    endloop
  endfacet
  facet normal 0 0 -1
    outer loop
      vertex 4 0 -2.5
      vertex 25 0 -2.5
      vertex 24.9507 -1.56976 -2.5
    endloop
  endfacet
  facet normal 0 0 -1
    outer loop
      vertex 4 0 -2.5
      vertex 24.9507 -1.56976 -2.5
      vertex 24.8029 -3.13333 -2.5
    endloop
  endfacet
  facet normal 0 0 -1
    outer loop
      vertex 25 0 -2.5
      vertex 4 0 -2.5
      vertex 24.9507 1.56976 -2.5
    endloop
  endfacet
  facet normal 0 0 -1
    outer loop
      vertex 4 0 -2.5
      vertex 24.8029 -3.13333 -2.5
      vertex 24.5572 -4.68453 -2.5
    endloop
  endfacet
  facet normal -0 0 -1
    outer loop
      vertex 24.9507 1.56976 -2.5
      vertex 4 0 -2.5
      vertex 24.8029 3.13333 -2.5
    endloop
  endfacet
  facet normal 0 0 -1
    outer loop
      vertex 4 0 -2.5
      vertex 24.5572 -4.68453 -2.5
      vertex 24.2146 -6.21725 -2.5
    endloop
  endfacet
  facet normal -0 0 -1
    outer loop
      vertex 24.8029 3.13333 -2.5
      vertex 4 0 -2.5
      vertex 24.5572 4.68453 -2.5
    endloop
  endfacet
  facet normal 0 0 -1
    outer loop
      vertex 4 0 -2.5
      vertex 24.2146 -6.21725 -2.5
      vertex 23.7764 -7.72542 -2.5
    endloop
  endfacet
  facet normal -0 0 -1
    outer loop
      vertex 24.5572 4.68453 -2.5
      vertex 4 0 -2.5
      vertex 24.2146 6.21725 -2.5
    endloop
  endfacet
  facet normal 0 0 -1
    outer loop
      vertex 4 0 -2.5
      vertex 23.7764 -7.72542 -2.5
      vertex 23.2444 -9.20311 -2.5
    endloop
  endfacet
  facet normal -0 0 -1
    outer loop
      vertex 24.2146 6.21725 -2.5
      vertex 4 0 -2.5
      vertex 23.7764 7.72542 -2.5
    endloop
  endfacet
  facet normal 0 0 -1
    outer loop
      vertex 4 0 -2.5
      vertex 23.2444 -9.20311 -2.5
      vertex 22.6207 -10.6445 -2.5
    endloop
  endfacet
  facet normal -0 0 -1
    outer loop
      vertex 23.7764 7.72542 -2.5
      vertex 4 0 -2.5
      vertex 23.2444 9.20311 -2.5
    endloop
  endfacet
  facet normal 0 0 -1
    outer loop
      vertex 4 0 -2.5
      vertex 22.6207 -10.6445 -2.5
      vertex 21.9077 -12.0438 -2.5
    endloop
  endfacet
  facet normal -0 0 -1
    outer loop
      vertex 23.2444 9.20311 -2.5
      vertex 4 0 -2.5
      vertex 22.6207 10.6445 -2.5
    endloop
  endfacet
  facet normal 0 0 -1
    outer loop
      vertex 2 -3.4641 -2.5
      vertex 21.9077 -12.0438 -2.5
      vertex 21.1082 -13.3957 -2.5
    endloop
  endfacet
  facet normal -0 0 -1
    outer loop
      vertex 22.6207 10.6445 -2.5
      vertex 4 0 -2.5
      vertex 21.9077 12.0438 -2.5
    endloop
  endfacet
  facet normal 0 0 -1
    outer loop
      vertex 2 -3.4641 -2.5
      vertex 21.1082 -13.3957 -2.5
      vertex 20.2254 -14.6946 -2.5
    endloop
  endfacet
  facet normal 0 0 -1
    outer loop
      vertex 2 3.4641 -2.5
      vertex 21.9077 12.0438 -2.5
      vertex 4 0 -2.5
    endloop
  endfacet
  facet normal 0 0 -1
    outer loop
      vertex 2 -3.4641 -2.5
      vertex 20.2254 -14.6946 -2.5
      vertex 19.2628 -15.9356 -2.5
    endloop
  endfacet
  facet normal -0 0 -1
    outer loop
      vertex 21.9077 12.0438 -2.5
      vertex 2 3.4641 -2.5
      vertex 21.1082 13.3957 -2.5
    endloop
  endfacet
  facet normal 0 0 -1
    outer loop
      vertex 2 -3.4641 -2.5
      vertex 19.2628 -15.9356 -2.5
      vertex 18.2242 -17.1137 -2.5
    endloop
  endfacet
  facet normal -0 0 -1
    outer loop
      vertex 21.1082 13.3957 -2.5
      vertex 2 3.4641 -2.5
      vertex 20.2254 14.6946 -2.5
    endloop
  endfacet
  facet normal 0 0 -1
    outer loop
      vertex 2 -3.4641 -2.5
      vertex 18.2242 -17.1137 -2.5
      vertex 17.1137 -18.2242 -2.5
    endloop
  endfacet
  facet normal -0 0 -1
    outer loop
      vertex 20.2254 14.6946 -2.5
      vertex 2 3.4641 -2.5
      vertex 19.2628 15.9356 -2.5
    endloop
  endfacet
  facet normal 0 0 -1
    outer loop
      vertex 2 -3.4641 -2.5
      vertex 17.1137 -18.2242 -2.5
      vertex 15.9356 -19.2628 -2.5
    endloop
  endfacet
  facet normal -0 0 -1
    outer loop
      vertex 19.2628 15.9356 -2.5
      vertex 2 3.4641 -2.5
      vertex 18.2242 17.1137 -2.5
    endloop
  endfacet
  facet normal 0 0 -1
    outer loop
      vertex 2 -3.4641 -2.5
      vertex 15.9356 -19.2628 -2.5
      vertex 14.6946 -20.2254 -2.5
    endloop
  endfacet
  facet normal -0 0 -1
    outer loop
      vertex 18.2242 17.1137 -2.5
      vertex 2 3.4641 -2.5
      vertex 17.1137 18.2242 -2.5
    endloop
  endfacet
  facet normal 0 0 -1
    outer loop
      vertex 2 -3.4641 -2.5
      vertex 14.6946 -20.2254 -2.5
      vertex 13.3957 -21.1082 -2.5
    endloop
  endfacet
  facet normal -0 0 -1
    outer loop
      vertex 17.1137 18.2242 -2.5
      vertex 2 3.4641 -2.5
      vertex 15.9356 19.2628 -2.5
    endloop
  endfacet
  facet normal 0 0 -1
    outer loop
      vertex 2 -3.4641 -2.5
      vertex 13.3957 -21.1082 -2.5
      vertex 12.0438 -21.9077 -2.5
    endloop
  endfacet
  facet normal -0 0 -1
    outer loop
      vertex 15.9356 19.2628 -2.5
      vertex 2 3.4641 -2.5
      vertex 14.6946 20.2254 -2.5
    endloop
  endfacet
  facet normal 0 0 -1
    outer loop
      vertex 2 -3.4641 -2.5
      vertex 12.0438 -21.9077 -2.5
      vertex 10.6445 -22.6207 -2.5
    endloop
  endfacet
  facet normal -0 0 -1
    outer loop
      vertex 14.6946 20.2254 -2.5
      vertex 2 3.4641 -2.5
      vertex 13.3957 21.1082 -2.5
    endloop
  endfacet
  facet normal 0 0 -1
    outer loop
      vertex 2 -3.4641 -2.5
      vertex 10.6445 -22.6207 -2.5
      vertex 9.20311 -23.2444 -2.5
    endloop
  endfacet
  facet normal -0 0 -1
    outer loop
      vertex 13.3957 21.1082 -2.5
      vertex 2 3.4641 -2.5
      vertex 12.0438 21.9077 -2.5
    endloop
  endfacet
  facet normal 0 0 -1
    outer loop
      vertex 2 -3.4641 -2.5
      vertex 9.20311 -23.2444 -2.5
      vertex 7.72542 -23.7764 -2.5
    endloop
  endfacet
  facet normal -0 0 -1
    outer loop
      vertex 12.0438 21.9077 -2.5
      vertex 2 3.4641 -2.5
      vertex 10.6445 22.6207 -2.5
    endloop
  endfacet
  facet normal 0 0 -1
    outer loop
      vertex 2 -3.4641 -2.5
      vertex 7.72542 -23.7764 -2.5
      vertex 6.21725 -24.2146 -2.5
    endloop
  endfacet
  facet normal -0 0 -1
    outer loop
      vertex 10.6445 22.6207 -2.5
      vertex 2 3.4641 -2.5
      vertex 9.20311 23.2444 -2.5
    endloop
  endfacet
  facet normal 0 0 -1
    outer loop
      vertex 2 -3.4641 -2.5
      vertex 6.21725 -24.2146 -2.5
      vertex 4.68453 -24.5572 -2.5
    endloop
  endfacet
  facet normal -0 0 -1
    outer loop
      vertex 9.20311 23.2444 -2.5
      vertex 2 3.4641 -2.5
      vertex 7.72542 23.7764 -2.5
    endloop
  endfacet
  facet normal -0 0 -1
    outer loop
      vertex 7.72542 23.7764 -2.5
      vertex 2 3.4641 -2.5
      vertex 6.21725 24.2146 -2.5
    endloop
  endfacet
  facet normal 0 0 -1
    outer loop
      vertex 2 -3.4641 -2.5
      vertex 4.68453 -24.5572 -2.5
      vertex 3.13333 -24.8029 -2.5
    endloop
  endfacet
  facet normal 0 0 -1
    outer loop
      vertex 21.9077 -12.0438 -2.5
      vertex 2 -3.4641 -2.5
      vertex 4 0 -2.5
    endloop
  endfacet
  facet normal 0 0 -1
    outer loop
      vertex 1.56976 -24.9507 -2.5
      vertex 2 -3.4641 -2.5
      vertex 3.13333 -24.8029 -2.5
    endloop
  endfacet
  facet normal 0 0 -1
    outer loop
      vertex 0 -25 -2.5
      vertex 2 -3.4641 -2.5
      vertex 1.56976 -24.9507 -2.5
    endloop
  endfacet
  facet normal 0 0 -1
    outer loop
      vertex -2 -3.4641 -2.5
      vertex 0 -25 -2.5
      vertex -1.56976 -24.9507 -2.5
    endloop
  endfacet
  facet normal 0 0 -1
    outer loop
      vertex 0 -25 -2.5
      vertex -2 -3.4641 -2.5
      vertex 2 -3.4641 -2.5
    endloop
  endfacet
  facet normal 0 0 -1
    outer loop
      vertex -3.13333 -24.8029 -2.5
      vertex -2 -3.4641 -2.5
      vertex -1.56976 -24.9507 -2.5
    endloop
  endfacet
  facet normal 0 0 -1
    outer loop
      vertex -4.68453 -24.5572 -2.5
      vertex -2 -3.4641 -2.5
      vertex -3.13333 -24.8029 -2.5
    endloop
  endfacet
  facet normal 0 0 -1
    outer loop
      vertex -6.21725 -24.2146 -2.5
      vertex -2 -3.4641 -2.5
      vertex -4.68453 -24.5572 -2.5
    endloop
  endfacet
  facet normal -0 0 -1
    outer loop
      vertex 6.21725 24.2146 -2.5
      vertex 2 3.4641 -2.5
      vertex 4.68453 24.5572 -2.5
    endloop
  endfacet
  facet normal -0 0 -1
    outer loop
      vertex 4.68453 24.5572 -2.5
      vertex 2 3.4641 -2.5
      vertex 3.13333 24.8029 -2.5
    endloop
  endfacet
  facet normal 0 0 -1
    outer loop
      vertex 2 3.4641 -2.5
      vertex 1.56976 24.9507 -2.5
      vertex 3.13333 24.8029 -2.5
    endloop
  endfacet
  facet normal 0 0 -1
    outer loop
      vertex 2 3.4641 -2.5
      vertex 0 25 -2.5
      vertex 1.56976 24.9507 -2.5
    endloop
  endfacet
  facet normal 0 0 -1
    outer loop
      vertex -2 3.4641 -2.5
      vertex 0 25 -2.5
      vertex 2 3.4641 -2.5
    endloop
  endfacet
  facet normal 0 0 -1
    outer loop
      vertex 0 25 -2.5
      vertex -2 3.4641 -2.5
      vertex -1.56976 24.9507 -2.5
    endloop
  endfacet
  facet normal 0 0 -1
    outer loop
      vertex -2 3.4641 -2.5
      vertex -3.13333 24.8029 -2.5
      vertex -1.56976 24.9507 -2.5
    endloop
  endfacet
  facet normal 0 0 -1
    outer loop
      vertex -21.9077 12.0438 -2.5
      vertex -2 3.4641 -2.5
      vertex -4 0 -2.5
    endloop
  endfacet
  facet normal 0 0 -1
    outer loop
      vertex -2 3.4641 -2.5
      vertex -4.68453 24.5572 -2.5
      vertex -3.13333 24.8029 -2.5
    endloop
  endfacet
  facet normal 0 0 -1
    outer loop
      vertex -7.72542 -23.7764 -2.5
      vertex -2 -3.4641 -2.5
      vertex -6.21725 -24.2146 -2.5
    endloop
  endfacet
  facet normal 0 0 -1
    outer loop
      vertex -9.20311 -23.2444 -2.5
      vertex -2 -3.4641 -2.5
      vertex -7.72542 -23.7764 -2.5
    endloop
  endfacet
  facet normal 0 0 -1
    outer loop
      vertex -2 3.4641 -2.5
      vertex -6.21725 24.2146 -2.5
      vertex -4.68453 24.5572 -2.5
    endloop
  endfacet
  facet normal 0 0 -1
    outer loop
      vertex -10.6445 -22.6207 -2.5
      vertex -2 -3.4641 -2.5
      vertex -9.20311 -23.2444 -2.5
    endloop
  endfacet
  facet normal 0 0 -1
    outer loop
      vertex -2 3.4641 -2.5
      vertex -7.72542 23.7764 -2.5
      vertex -6.21725 24.2146 -2.5
    endloop
  endfacet
  facet normal 0 0 -1
    outer loop
      vertex -12.0438 -21.9077 -2.5
      vertex -2 -3.4641 -2.5
      vertex -10.6445 -22.6207 -2.5
    endloop
  endfacet
  facet normal 0 0 -1
    outer loop
      vertex -2 3.4641 -2.5
      vertex -9.20311 23.2444 -2.5
      vertex -7.72542 23.7764 -2.5
    endloop
  endfacet
  facet normal 0 0 -1
    outer loop
      vertex -13.3957 -21.1082 -2.5
      vertex -2 -3.4641 -2.5
      vertex -12.0438 -21.9077 -2.5
    endloop
  endfacet
  facet normal 0 0 -1
    outer loop
      vertex -2 3.4641 -2.5
      vertex -10.6445 22.6207 -2.5
      vertex -9.20311 23.2444 -2.5
    endloop
  endfacet
  facet normal 0 0 -1
    outer loop
      vertex -14.6946 -20.2254 -2.5
      vertex -2 -3.4641 -2.5
      vertex -13.3957 -21.1082 -2.5
    endloop
  endfacet
  facet normal 0 0 -1
    outer loop
      vertex -2 3.4641 -2.5
      vertex -12.0438 21.9077 -2.5
      vertex -10.6445 22.6207 -2.5
    endloop
  endfacet
  facet normal 0 0 -1
    outer loop
      vertex -15.9356 -19.2628 -2.5
      vertex -2 -3.4641 -2.5
      vertex -14.6946 -20.2254 -2.5
    endloop
  endfacet
  facet normal 0 0 -1
    outer loop
      vertex -2 3.4641 -2.5
      vertex -13.3957 21.1082 -2.5
      vertex -12.0438 21.9077 -2.5
    endloop
  endfacet
  facet normal 0 0 -1
    outer loop
      vertex -17.1137 -18.2242 -2.5
      vertex -2 -3.4641 -2.5
      vertex -15.9356 -19.2628 -2.5
    endloop
  endfacet
  facet normal 0 0 -1
    outer loop
      vertex -2 3.4641 -2.5
      vertex -14.6946 20.2254 -2.5
      vertex -13.3957 21.1082 -2.5
    endloop
  endfacet
  facet normal 0 0 -1
    outer loop
      vertex -18.2242 -17.1137 -2.5
      vertex -2 -3.4641 -2.5
      vertex -17.1137 -18.2242 -2.5
    endloop
  endfacet
  facet normal 0 0 -1
    outer loop
      vertex -2 3.4641 -2.5
      vertex -15.9356 19.2628 -2.5
      vertex -14.6946 20.2254 -2.5
    endloop
  endfacet
  facet normal 0 0 -1
    outer loop
      vertex -19.2628 -15.9356 -2.5
      vertex -2 -3.4641 -2.5
      vertex -18.2242 -17.1137 -2.5
    endloop
  endfacet
  facet normal 0 0 -1
    outer loop
      vertex -2 3.4641 -2.5
      vertex -17.1137 18.2242 -2.5
      vertex -15.9356 19.2628 -2.5
    endloop
  endfacet
  facet normal 0 0 -1
    outer loop
      vertex -20.2254 -14.6946 -2.5
      vertex -2 -3.4641 -2.5
      vertex -19.2628 -15.9356 -2.5
    endloop
  endfacet
  facet normal 0 0 -1
    outer loop
      vertex -2 3.4641 -2.5
      vertex -18.2242 17.1137 -2.5
      vertex -17.1137 18.2242 -2.5
    endloop
  endfacet
  facet normal 0 0 -1
    outer loop
      vertex -21.1082 -13.3957 -2.5
      vertex -2 -3.4641 -2.5
      vertex -20.2254 -14.6946 -2.5
    endloop
  endfacet
  facet normal 0 0 -1
    outer loop
      vertex -2 3.4641 -2.5
      vertex -19.2628 15.9356 -2.5
      vertex -18.2242 17.1137 -2.5
    endloop
  endfacet
  facet normal 0 0 -1
    outer loop
      vertex -21.9077 -12.0438 -2.5
      vertex -2 -3.4641 -2.5
      vertex -21.1082 -13.3957 -2.5
    endloop
  endfacet
  facet normal 0 0 -1
    outer loop
      vertex -2 3.4641 -2.5
      vertex -20.2254 14.6946 -2.5
      vertex -19.2628 15.9356 -2.5
    endloop
  endfacet
  facet normal -0 0 -1
    outer loop
      vertex -2 -3.4641 -2.5
      vertex -21.9077 -12.0438 -2.5
      vertex -4 0 -2.5
    endloop
  endfacet
  facet normal 0 0 -1
    outer loop
      vertex -2 3.4641 -2.5
      vertex -21.1082 13.3957 -2.5
      vertex -20.2254 14.6946 -2.5
    endloop
  endfacet
  facet normal 0 0 -1
    outer loop
      vertex -22.6207 -10.6445 -2.5
      vertex -4 0 -2.5
      vertex -21.9077 -12.0438 -2.5
    endloop
  endfacet
  facet normal 0 0 -1
    outer loop
      vertex -2 3.4641 -2.5
      vertex -21.9077 12.0438 -2.5
      vertex -21.1082 13.3957 -2.5
    endloop
  endfacet
  facet normal 0 0 -1
    outer loop
      vertex -23.2444 -9.20311 -2.5
      vertex -4 0 -2.5
      vertex -22.6207 -10.6445 -2.5
    endloop
  endfacet
  facet normal 0 0 -1
    outer loop
      vertex -4 0 -2.5
      vertex -22.6207 10.6445 -2.5
      vertex -21.9077 12.0438 -2.5
    endloop
  endfacet
  facet normal 0 0 -1
    outer loop
      vertex -23.7764 -7.72542 -2.5
      vertex -4 0 -2.5
      vertex -23.2444 -9.20311 -2.5
    endloop
  endfacet
  facet normal 0 0 -1
    outer loop
      vertex -4 0 -2.5
      vertex -23.2444 9.20311 -2.5
      vertex -22.6207 10.6445 -2.5
    endloop
  endfacet
  facet normal 0 0 -1
    outer loop
      vertex -24.2146 -6.21725 -2.5
      vertex -4 0 -2.5
      vertex -23.7764 -7.72542 -2.5
    endloop
  endfacet
  facet normal 0 0 -1
    outer loop
      vertex -4 0 -2.5
      vertex -23.7764 7.72542 -2.5
      vertex -23.2444 9.20311 -2.5
    endloop
  endfacet
  facet normal 0 0 -1
    outer loop
      vertex -24.5572 -4.68453 -2.5
      vertex -4 0 -2.5
      vertex -24.2146 -6.21725 -2.5
    endloop
  endfacet
  facet normal 0 0 -1
    outer loop
      vertex -4 0 -2.5
      vertex -24.2146 6.21725 -2.5
      vertex -23.7764 7.72542 -2.5
    endloop
  endfacet
  facet normal 0 0 -1
    outer loop
      vertex -24.8029 -3.13333 -2.5
      vertex -4 0 -2.5
      vertex -24.5572 -4.68453 -2.5
    endloop
  endfacet
  facet normal 0 0 -1
    outer loop
      vertex -4 0 -2.5
      vertex -24.5572 4.68453 -2.5
      vertex -24.2146 6.21725 -2.5
    endloop
  endfacet
  facet normal 0 0 -1
    outer loop
      vertex -24.9507 -1.56976 -2.5
      vertex -4 0 -2.5
      vertex -24.8029 -3.13333 -2.5
    endloop
  endfacet
  facet normal 0 0 -1
    outer loop
      vertex -4 0 -2.5
      vertex -24.8029 3.13333 -2.5
      vertex -24.5572 4.68453 -2.5
    endloop
  endfacet
  facet normal 0 0 -1
    outer loop
      vertex -25 0 -2.5
      vertex -4 0 -2.5
      vertex -24.9507 -1.56976 -2.5
    endloop
  endfacet
  facet normal 0 0 -1
    outer loop
      vertex -4 0 -2.5
      vertex -24.9507 1.56976 -2.5
      vertex -24.8029 3.13333 -2.5
    endloop
  endfacet
  facet normal 0 0 -1
    outer loop
      vertex -4 0 -2.5
      vertex -25 0 -2.5
      vertex -24.9507 1.56976 -2.5
    endloop
  endfacet
  facet normal -0.960294 -0.278991 0
    outer loop
      vertex -23.7764 -7.72542 -2.5
      vertex -24.2146 -6.21725 2.5
      vertex -24.2146 -6.21725 -2.5
    endloop
  endfacet
  facet normal -0.960294 -0.278991 0
    outer loop
      vertex -24.2146 -6.21725 2.5
      vertex -23.7764 -7.72542 -2.5
      vertex -23.7764 -7.72542 2.5
    endloop
  endfacet
  facet normal -0.940881 -0.338738 0
    outer loop
      vertex -23.2444 -9.20311 -2.5
      vertex -23.7764 -7.72542 2.5
      vertex -23.7764 -7.72542 -2.5
    endloop
  endfacet
  facet normal -0.940881 -0.338738 0
    outer loop
      vertex -23.7764 -7.72542 2.5
      vertex -23.2444 -9.20311 -2.5
      vertex -23.2444 -9.20311 2.5
    endloop
  endfacet
  facet normal 0.975917 0.218143 0
    outer loop
      vertex 24.5572 4.68453 2.5
      vertex 24.2146 6.21725 -2.5
      vertex 24.2146 6.21725 2.5
    endloop
  endfacet
  facet normal 0.975917 0.218143 0
    outer loop
      vertex 24.2146 6.21725 -2.5
      vertex 24.5572 4.68453 2.5
      vertex 24.5572 4.68453 -2.5
    endloop
  endfacet
  facet normal 0.987688 0.156435 0
    outer loop
      vertex 24.8029 3.13333 2.5
      vertex 24.5572 4.68453 -2.5
      vertex 24.5572 4.68453 2.5
    endloop
  endfacet
  facet normal 0.987688 0.156435 0
    outer loop
      vertex 24.5572 4.68453 -2.5
      vertex 24.8029 3.13333 2.5
      vertex 24.8029 3.13333 -2.5
    endloop
  endfacet
  facet normal 0.995562 0.0941082 0
    outer loop
      vertex 24.9507 1.56976 2.5
      vertex 24.8029 3.13333 -2.5
      vertex 24.8029 3.13333 2.5
    endloop
  endfacet
  facet normal 0.995562 0.0941082 0
    outer loop
      vertex 24.8029 3.13333 -2.5
      vertex 24.9507 1.56976 2.5
      vertex 24.9507 1.56976 -2.5
    endloop
  endfacet
  facet normal 0.0941082 0.995562 -0
    outer loop
      vertex 3.13333 24.8029 -2.5
      vertex 1.56976 24.9507 2.5
      vertex 3.13333 24.8029 2.5
    endloop
  endfacet
  facet normal 0.0941082 0.995562 0
    outer loop
      vertex 1.56976 24.9507 2.5
      vertex 3.13333 24.8029 -2.5
      vertex 1.56976 24.9507 -2.5
    endloop
  endfacet
  facet normal -0.790155 0.612907 0
    outer loop
      vertex -20.2254 14.6946 -2.5
      vertex -19.2628 15.9356 2.5
      vertex -19.2628 15.9356 -2.5
    endloop
  endfacet
  facet normal -0.790155 0.612907 0
    outer loop
      vertex -19.2628 15.9356 2.5
      vertex -20.2254 14.6946 -2.5
      vertex -20.2254 14.6946 2.5
    endloop
  endfacet
  facet normal -0.750112 0.661311 0
    outer loop
      vertex -19.2628 15.9356 -2.5
      vertex -18.2242 17.1137 2.5
      vertex -18.2242 17.1137 -2.5
    endloop
  endfacet
  facet normal -0.750112 0.661311 0
    outer loop
      vertex -18.2242 17.1137 2.5
      vertex -19.2628 15.9356 -2.5
      vertex -19.2628 15.9356 2.5
    endloop
  endfacet
  facet normal 0 0 1
    outer loop
      vertex 4 0 2.5
      vertex 25 0 2.5
      vertex 24.9507 1.56976 2.5
    endloop
  endfacet
  facet normal 0 0 1
    outer loop
      vertex 4 0 2.5
      vertex 24.9507 1.56976 2.5
      vertex 24.8029 3.13333 2.5
    endloop
  endfacet
  facet normal 0 0 1
    outer loop
      vertex 25 0 2.5
      vertex 4 0 2.5
      vertex 24.9507 -1.56976 2.5
    endloop
  endfacet
  facet normal 0 0 1
    outer loop
      vertex 4 0 2.5
      vertex 24.8029 3.13333 2.5
      vertex 24.5572 4.68453 2.5
    endloop
  endfacet
  facet normal 0 0 1
    outer loop
      vertex 24.9507 -1.56976 2.5
      vertex 4 0 2.5
      vertex 24.8029 -3.13333 2.5
    endloop
  endfacet
  facet normal 0 0 1
    outer loop
      vertex 4 0 2.5
      vertex 24.5572 4.68453 2.5
      vertex 24.2146 6.21725 2.5
    endloop
  endfacet
  facet normal 0 0 1
    outer loop
      vertex 24.8029 -3.13333 2.5
      vertex 4 0 2.5
      vertex 24.5572 -4.68453 2.5
    endloop
  endfacet
  facet normal 0 0 1
    outer loop
      vertex 4 0 2.5
      vertex 24.2146 6.21725 2.5
      vertex 23.7764 7.72542 2.5
    endloop
  endfacet
  facet normal 0 0 1
    outer loop
      vertex 24.5572 -4.68453 2.5
      vertex 4 0 2.5
      vertex 24.2146 -6.21725 2.5
    endloop
  endfacet
  facet normal 0 0 1
    outer loop
      vertex 4 0 2.5
      vertex 23.7764 7.72542 2.5
      vertex 23.2444 9.20311 2.5
    endloop
  endfacet
  facet normal 0 0 1
    outer loop
      vertex 24.2146 -6.21725 2.5
      vertex 4 0 2.5
      vertex 23.7764 -7.72542 2.5
    endloop
  endfacet
  facet normal 0 0 1
    outer loop
      vertex 4 0 2.5
      vertex 23.2444 9.20311 2.5
      vertex 22.6207 10.6445 2.5
    endloop
  endfacet
  facet normal 0 0 1
    outer loop
      vertex 23.7764 -7.72542 2.5
      vertex 4 0 2.5
      vertex 23.2444 -9.20311 2.5
    endloop
  endfacet
  facet normal 0 0 1
    outer loop
      vertex 4 0 2.5
      vertex 22.6207 10.6445 2.5
      vertex 21.9077 12.0438 2.5
    endloop
  endfacet
  facet normal 0 0 1
    outer loop
      vertex 23.2444 -9.20311 2.5
      vertex 4 0 2.5
      vertex 22.6207 -10.6445 2.5
    endloop
  endfacet
  facet normal 0 0 1
    outer loop
      vertex 2 3.4641 2.5
      vertex 21.9077 12.0438 2.5
      vertex 21.1082 13.3957 2.5
    endloop
  endfacet
  facet normal 0 0 1
    outer loop
      vertex 22.6207 -10.6445 2.5
      vertex 4 0 2.5
      vertex 21.9077 -12.0438 2.5
    endloop
  endfacet
  facet normal 0 0 1
    outer loop
      vertex 2 3.4641 2.5
      vertex 21.1082 13.3957 2.5
      vertex 20.2254 14.6946 2.5
    endloop
  endfacet
  facet normal -0 0 1
    outer loop
      vertex 2 -3.4641 2.5
      vertex 21.9077 -12.0438 2.5
      vertex 4 0 2.5
    endloop
  endfacet
  facet normal 0 0 1
    outer loop
      vertex 2 3.4641 2.5
      vertex 20.2254 14.6946 2.5
      vertex 19.2628 15.9356 2.5
    endloop
  endfacet
  facet normal 0 0 1
    outer loop
      vertex 21.9077 -12.0438 2.5
      vertex 2 -3.4641 2.5
      vertex 21.1082 -13.3957 2.5
    endloop
  endfacet
  facet normal 0 0 1
    outer loop
      vertex 2 3.4641 2.5
      vertex 19.2628 15.9356 2.5
      vertex 18.2242 17.1137 2.5
    endloop
  endfacet
  facet normal 0 0 1
    outer loop
      vertex 21.1082 -13.3957 2.5
      vertex 2 -3.4641 2.5
      vertex 20.2254 -14.6946 2.5
    endloop
  endfacet
  facet normal 0 0 1
    outer loop
      vertex 2 3.4641 2.5
      vertex 18.2242 17.1137 2.5
      vertex 17.1137 18.2242 2.5
    endloop
  endfacet
  facet normal 0 0 1
    outer loop
      vertex 20.2254 -14.6946 2.5
      vertex 2 -3.4641 2.5
      vertex 19.2628 -15.9356 2.5
    endloop
  endfacet
  facet normal 0 0 1
    outer loop
      vertex 2 3.4641 2.5
      vertex 17.1137 18.2242 2.5
      vertex 15.9356 19.2628 2.5
    endloop
  endfacet
  facet normal 0 0 1
    outer loop
      vertex 19.2628 -15.9356 2.5
      vertex 2 -3.4641 2.5
      vertex 18.2242 -17.1137 2.5
    endloop
  endfacet
  facet normal 0 0 1
    outer loop
      vertex 2 3.4641 2.5
      vertex 15.9356 19.2628 2.5
      vertex 14.6946 20.2254 2.5
    endloop
  endfacet
  facet normal 0 0 1
    outer loop
      vertex 18.2242 -17.1137 2.5
      vertex 2 -3.4641 2.5
      vertex 17.1137 -18.2242 2.5
    endloop
  endfacet
  facet normal 0 0 1
    outer loop
      vertex 2 3.4641 2.5
      vertex 14.6946 20.2254 2.5
      vertex 13.3957 21.1082 2.5
    endloop
  endfacet
  facet normal 0 0 1
    outer loop
      vertex 17.1137 -18.2242 2.5
      vertex 2 -3.4641 2.5
      vertex 15.9356 -19.2628 2.5
    endloop
  endfacet
  facet normal 0 0 1
    outer loop
      vertex 2 3.4641 2.5
      vertex 13.3957 21.1082 2.5
      vertex 12.0438 21.9077 2.5
    endloop
  endfacet
  facet normal 0 0 1
    outer loop
      vertex 15.9356 -19.2628 2.5
      vertex 2 -3.4641 2.5
      vertex 14.6946 -20.2254 2.5
    endloop
  endfacet
  facet normal 0 0 1
    outer loop
      vertex 2 3.4641 2.5
      vertex 12.0438 21.9077 2.5
      vertex 10.6445 22.6207 2.5
    endloop
  endfacet
  facet normal 0 0 1
    outer loop
      vertex 14.6946 -20.2254 2.5
      vertex 2 -3.4641 2.5
      vertex 13.3957 -21.1082 2.5
    endloop
  endfacet
  facet normal 0 0 1
    outer loop
      vertex 2 3.4641 2.5
      vertex 10.6445 22.6207 2.5
      vertex 9.20311 23.2444 2.5
    endloop
  endfacet
  facet normal 0 0 1
    outer loop
      vertex 13.3957 -21.1082 2.5
      vertex 2 -3.4641 2.5
      vertex 12.0438 -21.9077 2.5
    endloop
  endfacet
  facet normal 0 0 1
    outer loop
      vertex 2 3.4641 2.5
      vertex 9.20311 23.2444 2.5
      vertex 7.72542 23.7764 2.5
    endloop
  endfacet
  facet normal 0 0 1
    outer loop
      vertex 12.0438 -21.9077 2.5
      vertex 2 -3.4641 2.5
      vertex 10.6445 -22.6207 2.5
    endloop
  endfacet
  facet normal 0 0 1
    outer loop
      vertex 2 3.4641 2.5
      vertex 7.72542 23.7764 2.5
      vertex 6.21725 24.2146 2.5
    endloop
  endfacet
  facet normal 0 0 1
    outer loop
      vertex 10.6445 -22.6207 2.5
      vertex 2 -3.4641 2.5
      vertex 9.20311 -23.2444 2.5
    endloop
  endfacet
  facet normal 0 0 1
    outer loop
      vertex 2 3.4641 2.5
      vertex 6.21725 24.2146 2.5
      vertex 4.68453 24.5572 2.5
    endloop
  endfacet
  facet normal 0 0 1
    outer loop
      vertex 9.20311 -23.2444 2.5
      vertex 2 -3.4641 2.5
      vertex 7.72542 -23.7764 2.5
    endloop
  endfacet
  facet normal 0 0 1
    outer loop
      vertex 7.72542 -23.7764 2.5
      vertex 2 -3.4641 2.5
      vertex 6.21725 -24.2146 2.5
    endloop
  endfacet
  facet normal 0 0 1
    outer loop
      vertex 2 3.4641 2.5
      vertex 4.68453 24.5572 2.5
      vertex 3.13333 24.8029 2.5
    endloop
  endfacet
  facet normal 0 0 1
    outer loop
      vertex 21.9077 12.0438 2.5
      vertex 2 3.4641 2.5
      vertex 4 0 2.5
    endloop
  endfacet
  facet normal 0 0 1
    outer loop
      vertex 1.56976 24.9507 2.5
      vertex 2 3.4641 2.5
      vertex 3.13333 24.8029 2.5
    endloop
  endfacet
  facet normal 0 0 1
    outer loop
      vertex 0 25 2.5
      vertex 2 3.4641 2.5
      vertex 1.56976 24.9507 2.5
    endloop
  endfacet
  facet normal 0 0 1
    outer loop
      vertex -2 3.4641 2.5
      vertex 0 25 2.5
      vertex -1.56976 24.9507 2.5
    endloop
  endfacet
  facet normal 0 0 1
    outer loop
      vertex 0 25 2.5
      vertex -2 3.4641 2.5
      vertex 2 3.4641 2.5
    endloop
  endfacet
  facet normal -0 0 1
    outer loop
      vertex -3.13333 24.8029 2.5
      vertex -2 3.4641 2.5
      vertex -1.56976 24.9507 2.5
    endloop
  endfacet
  facet normal -0 0 1
    outer loop
      vertex -4.68453 24.5572 2.5
      vertex -2 3.4641 2.5
      vertex -3.13333 24.8029 2.5
    endloop
  endfacet
  facet normal -0 0 1
    outer loop
      vertex -6.21725 24.2146 2.5
      vertex -2 3.4641 2.5
      vertex -4.68453 24.5572 2.5
    endloop
  endfacet
  facet normal 0 0 1
    outer loop
      vertex 6.21725 -24.2146 2.5
      vertex 2 -3.4641 2.5
      vertex 4.68453 -24.5572 2.5
    endloop
  endfacet
  facet normal 0 0 1
    outer loop
      vertex 4.68453 -24.5572 2.5
      vertex 2 -3.4641 2.5
      vertex 3.13333 -24.8029 2.5
    endloop
  endfacet
  facet normal 0 0 1
    outer loop
      vertex 2 -3.4641 2.5
      vertex 1.56976 -24.9507 2.5
      vertex 3.13333 -24.8029 2.5
    endloop
  endfacet
  facet normal 0 0 1
    outer loop
      vertex 2 -3.4641 2.5
      vertex 0 -25 2.5
      vertex 1.56976 -24.9507 2.5
    endloop
  endfacet
  facet normal -0 0 1
    outer loop
      vertex -2 -3.4641 2.5
      vertex 0 -25 2.5
      vertex 2 -3.4641 2.5
    endloop
  endfacet
  facet normal 0 0 1
    outer loop
      vertex 0 -25 2.5
      vertex -2 -3.4641 2.5
      vertex -1.56976 -24.9507 2.5
    endloop
  endfacet
  facet normal 0 0 1
    outer loop
      vertex -2 -3.4641 2.5
      vertex -3.13333 -24.8029 2.5
      vertex -1.56976 -24.9507 2.5
    endloop
  endfacet
  facet normal 0 0 1
    outer loop
      vertex -21.9077 -12.0438 2.5
      vertex -2 -3.4641 2.5
      vertex -4 0 2.5
    endloop
  endfacet
  facet normal 0 0 1
    outer loop
      vertex -2 -3.4641 2.5
      vertex -4.68453 -24.5572 2.5
      vertex -3.13333 -24.8029 2.5
    endloop
  endfacet
  facet normal -0 0 1
    outer loop
      vertex -7.72542 23.7764 2.5
      vertex -2 3.4641 2.5
      vertex -6.21725 24.2146 2.5
    endloop
  endfacet
  facet normal -0 0 1
    outer loop
      vertex -9.20311 23.2444 2.5
      vertex -2 3.4641 2.5
      vertex -7.72542 23.7764 2.5
    endloop
  endfacet
  facet normal 0 0 1
    outer loop
      vertex -2 -3.4641 2.5
      vertex -6.21725 -24.2146 2.5
      vertex -4.68453 -24.5572 2.5
    endloop
  endfacet
  facet normal -0 0 1
    outer loop
      vertex -10.6445 22.6207 2.5
      vertex -2 3.4641 2.5
      vertex -9.20311 23.2444 2.5
    endloop
  endfacet
  facet normal 0 0 1
    outer loop
      vertex -2 -3.4641 2.5
      vertex -7.72542 -23.7764 2.5
      vertex -6.21725 -24.2146 2.5
    endloop
  endfacet
  facet normal -0 0 1
    outer loop
      vertex -12.0438 21.9077 2.5
      vertex -2 3.4641 2.5
      vertex -10.6445 22.6207 2.5
    endloop
  endfacet
  facet normal 0 0 1
    outer loop
      vertex -2 -3.4641 2.5
      vertex -9.20311 -23.2444 2.5
      vertex -7.72542 -23.7764 2.5
    endloop
  endfacet
  facet normal -0 0 1
    outer loop
      vertex -13.3957 21.1082 2.5
      vertex -2 3.4641 2.5
      vertex -12.0438 21.9077 2.5
    endloop
  endfacet
  facet normal 0 0 1
    outer loop
      vertex -2 -3.4641 2.5
      vertex -10.6445 -22.6207 2.5
      vertex -9.20311 -23.2444 2.5
    endloop
  endfacet
  facet normal -0 0 1
    outer loop
      vertex -14.6946 20.2254 2.5
      vertex -2 3.4641 2.5
      vertex -13.3957 21.1082 2.5
    endloop
  endfacet
  facet normal 0 0 1
    outer loop
      vertex -2 -3.4641 2.5
      vertex -12.0438 -21.9077 2.5
      vertex -10.6445 -22.6207 2.5
    endloop
  endfacet
  facet normal -0 0 1
    outer loop
      vertex -15.9356 19.2628 2.5
      vertex -2 3.4641 2.5
      vertex -14.6946 20.2254 2.5
    endloop
  endfacet
  facet normal 0 0 1
    outer loop
      vertex -2 -3.4641 2.5
      vertex -13.3957 -21.1082 2.5
      vertex -12.0438 -21.9077 2.5
    endloop
  endfacet
  facet normal -0 0 1
    outer loop
      vertex -17.1137 18.2242 2.5
      vertex -2 3.4641 2.5
      vertex -15.9356 19.2628 2.5
    endloop
  endfacet
  facet normal 0 0 1
    outer loop
      vertex -2 -3.4641 2.5
      vertex -14.6946 -20.2254 2.5
      vertex -13.3957 -21.1082 2.5
    endloop
  endfacet
  facet normal -0 0 1
    outer loop
      vertex -18.2242 17.1137 2.5
      vertex -2 3.4641 2.5
      vertex -17.1137 18.2242 2.5
    endloop
  endfacet
  facet normal 0 0 1
    outer loop
      vertex -2 -3.4641 2.5
      vertex -15.9356 -19.2628 2.5
      vertex -14.6946 -20.2254 2.5
    endloop
  endfacet
  facet normal -0 0 1
    outer loop
      vertex -19.2628 15.9356 2.5
      vertex -2 3.4641 2.5
      vertex -18.2242 17.1137 2.5
    endloop
  endfacet
  facet normal 0 0 1
    outer loop
      vertex -2 -3.4641 2.5
      vertex -17.1137 -18.2242 2.5
      vertex -15.9356 -19.2628 2.5
    endloop
  endfacet
  facet normal -0 0 1
    outer loop
      vertex -20.2254 14.6946 2.5
      vertex -2 3.4641 2.5
      vertex -19.2628 15.9356 2.5
    endloop
  endfacet
  facet normal 0 0 1
    outer loop
      vertex -2 -3.4641 2.5
      vertex -18.2242 -17.1137 2.5
      vertex -17.1137 -18.2242 2.5
    endloop
  endfacet
  facet normal -0 0 1
    outer loop
      vertex -21.1082 13.3957 2.5
      vertex -2 3.4641 2.5
      vertex -20.2254 14.6946 2.5
    endloop
  endfacet
  facet normal 0 0 1
    outer loop
      vertex -2 -3.4641 2.5
      vertex -19.2628 -15.9356 2.5
      vertex -18.2242 -17.1137 2.5
    endloop
  endfacet
  facet normal -0 0 1
    outer loop
      vertex -21.9077 12.0438 2.5
      vertex -2 3.4641 2.5
      vertex -21.1082 13.3957 2.5
    endloop
  endfacet
  facet normal 0 0 1
    outer loop
      vertex -2 -3.4641 2.5
      vertex -20.2254 -14.6946 2.5
      vertex -19.2628 -15.9356 2.5
    endloop
  endfacet
  facet normal 0 0 1
    outer loop
      vertex -2 3.4641 2.5
      vertex -21.9077 12.0438 2.5
      vertex -4 0 2.5
    endloop
  endfacet
  facet normal 0 0 1
    outer loop
      vertex -2 -3.4641 2.5
      vertex -21.1082 -13.3957 2.5
      vertex -20.2254 -14.6946 2.5
    endloop
  endfacet
  facet normal -0 0 1
    outer loop
      vertex -22.6207 10.6445 2.5
      vertex -4 0 2.5
      vertex -21.9077 12.0438 2.5
    endloop
  endfacet
  facet normal 0 0 1
    outer loop
      vertex -2 -3.4641 2.5
      vertex -21.9077 -12.0438 2.5
      vertex -21.1082 -13.3957 2.5
    endloop
  endfacet
  facet normal -0 0 1
    outer loop
      vertex -23.2444 9.20311 2.5
      vertex -4 0 2.5
      vertex -22.6207 10.6445 2.5
    endloop
  endfacet
  facet normal 0 0 1
    outer loop
      vertex -4 0 2.5
      vertex -22.6207 -10.6445 2.5
      vertex -21.9077 -12.0438 2.5
    endloop
  endfacet
  facet normal -0 0 1
    outer loop
      vertex -23.7764 7.72542 2.5
      vertex -4 0 2.5
      vertex -23.2444 9.20311 2.5
    endloop
  endfacet
  facet normal 0 0 1
    outer loop
      vertex -4 0 2.5
      vertex -23.2444 -9.20311 2.5
      vertex -22.6207 -10.6445 2.5
    endloop
  endfacet
  facet normal -0 0 1
    outer loop
      vertex -24.2146 6.21725 2.5
      vertex -4 0 2.5
      vertex -23.7764 7.72542 2.5
    endloop
  endfacet
  facet normal 0 0 1
    outer loop
      vertex -4 0 2.5
      vertex -23.7764 -7.72542 2.5
      vertex -23.2444 -9.20311 2.5
    endloop
  endfacet
  facet normal -0 0 1
    outer loop
      vertex -24.5572 4.68453 2.5
      vertex -4 0 2.5
      vertex -24.2146 6.21725 2.5
    endloop
  endfacet
  facet normal 0 0 1
    outer loop
      vertex -4 0 2.5
      vertex -24.2146 -6.21725 2.5
      vertex -23.7764 -7.72542 2.5
    endloop
  endfacet
  facet normal -0 0 1
    outer loop
      vertex -24.8029 3.13333 2.5
      vertex -4 0 2.5
      vertex -24.5572 4.68453 2.5
    endloop
  endfacet
  facet normal 0 0 1
    outer loop
      vertex -4 0 2.5
      vertex -24.5572 -4.68453 2.5
      vertex -24.2146 -6.21725 2.5
    endloop
  endfacet
  facet normal -0 0 1
    outer loop
      vertex -24.9507 1.56976 2.5
      vertex -4 0 2.5
      vertex -24.8029 3.13333 2.5
    endloop
  endfacet
  facet normal 0 0 1
    outer loop
      vertex -4 0 2.5
      vertex -24.8029 -3.13333 2.5
      vertex -24.5572 -4.68453 2.5
    endloop
  endfacet
  facet normal 0 0 1
    outer loop
      vertex -25 0 2.5
      vertex -4 0 2.5
      vertex -24.9507 1.56976 2.5
    endloop
  endfacet
  facet normal 0 0 1
    outer loop
      vertex -4 0 2.5
      vertex -24.9507 -1.56976 2.5
      vertex -24.8029 -3.13333 2.5
    endloop
  endfacet
  facet normal 0 0 1
    outer loop
      vertex -4 0 2.5
      vertex -25 0 2.5
      vertex -24.9507 -1.56976 2.5
    endloop
  endfacet
  facet normal -0.995562 0.0941082 0
    outer loop
      vertex -24.9507 1.56976 -2.5
      vertex -24.8029 3.13333 2.5
      vertex -24.8029 3.13333 -2.5
    endloop
  endfacet
  facet normal -0.995562 0.0941082 0
    outer loop
      vertex -24.8029 3.13333 2.5
      vertex -24.9507 1.56976 -2.5
      vertex -24.9507 1.56976 2.5
    endloop
  endfacet
  facet normal 0.218143 -0.975917 0
    outer loop
      vertex 4.68453 -24.5572 -2.5
      vertex 6.21725 -24.2146 2.5
      vertex 4.68453 -24.5572 2.5
    endloop
  endfacet
  facet normal 0.218143 -0.975917 0
    outer loop
      vertex 6.21725 -24.2146 2.5
      vertex 4.68453 -24.5572 -2.5
      vertex 6.21725 -24.2146 -2.5
    endloop
  endfacet
  facet normal 0.0941082 -0.995562 0
    outer loop
      vertex 1.56976 -24.9507 -2.5
      vertex 3.13333 -24.8029 2.5
      vertex 1.56976 -24.9507 2.5
    endloop
  endfacet
  facet normal 0.0941082 -0.995562 0
    outer loop
      vertex 3.13333 -24.8029 2.5
      vertex 1.56976 -24.9507 -2.5
      vertex 3.13333 -24.8029 -2.5
    endloop
  endfacet
  facet normal 0.338738 -0.940881 0
    outer loop
      vertex 7.72542 -23.7764 -2.5
      vertex 9.20311 -23.2444 2.5
      vertex 7.72542 -23.7764 2.5
    endloop
  endfacet
  facet normal 0.338738 -0.940881 0
    outer loop
      vertex 9.20311 -23.2444 2.5
      vertex 7.72542 -23.7764 -2.5
      vertex 9.20311 -23.2444 -2.5
    endloop
  endfacet
  facet normal 0.661311 -0.750112 0
    outer loop
      vertex 15.9356 -19.2628 -2.5
      vertex 17.1137 -18.2242 2.5
      vertex 15.9356 -19.2628 2.5
    endloop
  endfacet
  facet normal 0.661311 -0.750112 0
    outer loop
      vertex 17.1137 -18.2242 2.5
      vertex 15.9356 -19.2628 -2.5
      vertex 17.1137 -18.2242 -2.5
    endloop
  endfacet
  facet normal 0.891006 -0.453991 0
    outer loop
      vertex 21.9077 -12.0438 2.5
      vertex 22.6207 -10.6445 -2.5
      vertex 22.6207 -10.6445 2.5
    endloop
  endfacet
  facet normal 0.891006 -0.453991 0
    outer loop
      vertex 22.6207 -10.6445 -2.5
      vertex 21.9077 -12.0438 2.5
      vertex 21.9077 -12.0438 -2.5
    endloop
  endfacet
  facet normal 0.987688 -0.156435 0
    outer loop
      vertex 24.5572 -4.68453 2.5
      vertex 24.8029 -3.13333 -2.5
      vertex 24.8029 -3.13333 2.5
    endloop
  endfacet
  facet normal 0.987688 -0.156435 0
    outer loop
      vertex 24.8029 -3.13333 -2.5
      vertex 24.5572 -4.68453 2.5
      vertex 24.5572 -4.68453 -2.5
    endloop
  endfacet
  facet normal 0.995562 -0.0941082 0
    outer loop
      vertex 24.8029 -3.13333 2.5
      vertex 24.9507 -1.56976 -2.5
      vertex 24.9507 -1.56976 2.5
    endloop
  endfacet
  facet normal 0.995562 -0.0941082 0
    outer loop
      vertex 24.9507 -1.56976 -2.5
      vertex 24.8029 -3.13333 2.5
      vertex 24.8029 -3.13333 -2.5
    endloop
  endfacet
  facet normal 0.960294 -0.278991 0
    outer loop
      vertex 23.7764 -7.72542 2.5
      vertex 24.2146 -6.21725 -2.5
      vertex 24.2146 -6.21725 2.5
    endloop
  endfacet
  facet normal 0.960294 -0.278991 0
    outer loop
      vertex 24.2146 -6.21725 -2.5
      vertex 23.7764 -7.72542 2.5
      vertex 23.7764 -7.72542 -2.5
    endloop
  endfacet
  facet normal -0.278991 -0.960294 0
    outer loop
      vertex -7.72542 -23.7764 -2.5
      vertex -6.21725 -24.2146 2.5
      vertex -7.72542 -23.7764 2.5
    endloop
  endfacet
  facet normal -0.278991 -0.960294 -0
    outer loop
      vertex -6.21725 -24.2146 2.5
      vertex -7.72542 -23.7764 -2.5
      vertex -6.21725 -24.2146 -2.5
    endloop
  endfacet
  facet normal -0.156435 -0.987688 0
    outer loop
      vertex -4.68453 -24.5572 -2.5
      vertex -3.13333 -24.8029 2.5
      vertex -4.68453 -24.5572 2.5
    endloop
  endfacet
  facet normal -0.156435 -0.987688 -0
    outer loop
      vertex -3.13333 -24.8029 2.5
      vertex -4.68453 -24.5572 -2.5
      vertex -3.13333 -24.8029 -2.5
    endloop
  endfacet
  facet normal -0.509042 -0.860742 0
    outer loop
      vertex -13.3957 -21.1082 -2.5
      vertex -12.0438 -21.9077 2.5
      vertex -13.3957 -21.1082 2.5
    endloop
  endfacet
  facet normal -0.509042 -0.860742 -0
    outer loop
      vertex -12.0438 -21.9077 2.5
      vertex -13.3957 -21.1082 -2.5
      vertex -12.0438 -21.9077 -2.5
    endloop
  endfacet
  facet normal -0.995562 -0.0941082 0
    outer loop
      vertex -24.8029 -3.13333 -2.5
      vertex -24.9507 -1.56976 2.5
      vertex -24.9507 -1.56976 -2.5
    endloop
  endfacet
  facet normal -0.995562 -0.0941082 0
    outer loop
      vertex -24.9507 -1.56976 2.5
      vertex -24.8029 -3.13333 -2.5
      vertex -24.8029 -3.13333 2.5
    endloop
  endfacet
  facet normal -0.866025 -0.5 0
    outer loop
      vertex 4 0 -2.5
      vertex 2 3.4641 2.5
      vertex 2 3.4641 -2.5
    endloop
  endfacet
  facet normal -0.866025 -0.5 0
    outer loop
      vertex 2 3.4641 2.5
      vertex 4 0 -2.5
      vertex 4 0 2.5
    endloop
  endfacet
  facet normal 0.866025 -0.5 0
    outer loop
      vertex -4 0 2.5
      vertex -2 3.4641 -2.5
      vertex -2 3.4641 2.5
    endloop
  endfacet
  facet normal 0.866025 -0.5 0
    outer loop
      vertex -2 3.4641 -2.5
      vertex -4 0 2.5
      vertex -4 0 -2.5
    endloop
  endfacet
  facet normal 0 -1 0
    outer loop
      vertex -2 3.4641 -2.5
      vertex 2 3.4641 2.5
      vertex -2 3.4641 2.5
    endloop
  endfacet
  facet normal 0 -1 -0
    outer loop
      vertex 2 3.4641 2.5
      vertex -2 3.4641 -2.5
      vertex 2 3.4641 -2.5
    endloop
  endfacet
  facet normal -0.866025 0.5 0
    outer loop
      vertex 2 -3.4641 -2.5
      vertex 4 0 2.5
      vertex 4 0 -2.5
    endloop
  endfacet
  facet normal -0.866025 0.5 0
    outer loop
      vertex 4 0 2.5
      vertex 2 -3.4641 -2.5
      vertex 2 -3.4641 2.5
    endloop
  endfacet
  facet normal 0 1 -0
    outer loop
      vertex 2 -3.4641 -2.5
      vertex -2 -3.4641 2.5
      vertex 2 -3.4641 2.5
    endloop
  endfacet
  facet normal 0 1 0
    outer loop
      vertex -2 -3.4641 2.5
      vertex 2 -3.4641 -2.5
      vertex -2 -3.4641 -2.5
    endloop
  endfacet
  facet normal 0.866025 0.5 0
    outer loop
      vertex -2 -3.4641 2.5
      vertex -4 0 -2.5
      vertex -4 0 2.5
    endloop
  endfacet
  facet normal 0.866025 0.5 0
    outer loop
      vertex -4 0 -2.5
      vertex -2 -3.4641 2.5
      vertex -2 -3.4641 -2.5
    endloop
  endfacet
endsolid OpenSCAD_Model
