solid OpenSCAD_Model
  facet normal -0.951056 -0.309017 0
    outer loop
      vertex 3 -40 0
      vertex 2.42705 -38.2366 5
      vertex 2.42705 -38.2366 0
    endloop
  endfacet
  facet normal -0.951056 -0.309017 0
    outer loop
      vertex 2.42705 -38.2366 5
      vertex 3 -40 0
      vertex 3 -40 5
    endloop
  endfacet
  facet normal 0 -1 0
    outer loop
      vertex -0.927052 -37.1468 0
      vertex 0.927051 -37.1468 5
      vertex -0.927052 -37.1468 5
    endloop
  endfacet
  facet normal 0 -1 -0
    outer loop
      vertex 0.927051 -37.1468 5
      vertex -0.927052 -37.1468 0
      vertex 0.927051 -37.1468 0
    endloop
  endfacet
  facet normal -0.587785 -0.809017 0
    outer loop
      vertex 0.927051 -37.1468 0
      vertex 2.42705 -38.2366 5
      vertex 0.927051 -37.1468 5
    endloop
  endfacet
  facet normal -0.587785 -0.809017 -0
    outer loop
      vertex 2.42705 -38.2366 5
      vertex 0.927051 -37.1468 0
      vertex 2.42705 -38.2366 0
    endloop
  endfacet
  facet normal 0.587785 -0.809017 0
    outer loop
      vertex -2.42705 -38.2366 0
      vertex -0.927052 -37.1468 5
      vertex -2.42705 -38.2366 5
    endloop
  endfacet
  facet normal 0.587785 -0.809017 0
    outer loop
      vertex -0.927052 -37.1468 5
      vertex -2.42705 -38.2366 0
      vertex -0.927052 -37.1468 0
    endloop
  endfacet
  facet normal -0.587786 0.809016 0
    outer loop
      vertex 2.42705 -41.7634 0
      vertex 0.927051 -42.8532 5
      vertex 2.42705 -41.7634 5
    endloop
  endfacet
  facet normal -0.587786 0.809016 0
    outer loop
      vertex 0.927051 -42.8532 5
      vertex 2.42705 -41.7634 0
      vertex 0.927051 -42.8532 0
    endloop
  endfacet
  facet normal 0.587786 0.809016 -0
    outer loop
      vertex -0.927052 -42.8532 0
      vertex -2.42705 -41.7634 5
      vertex -0.927052 -42.8532 5
    endloop
  endfacet
  facet normal 0.587786 0.809016 0
    outer loop
      vertex -2.42705 -41.7634 5
      vertex -0.927052 -42.8532 0
      vertex -2.42705 -41.7634 0
    endloop
  endfacet
  facet normal 0.951057 -0.309017 0
    outer loop
      vertex -3 -40 5
      vertex -2.42705 -38.2366 0
      vertex -2.42705 -38.2366 5
    endloop
  endfacet
  facet normal 0.951057 -0.309017 0
    outer loop
      vertex -2.42705 -38.2366 0
      vertex -3 -40 5
      vertex -3 -40 0
    endloop
  endfacet
  facet normal 0 1 -0
    outer loop
      vertex 0.927051 -42.8532 0
      vertex -0.927052 -42.8532 5
      vertex 0.927051 -42.8532 5
    endloop
  endfacet
  facet normal 0 1 0
    outer loop
      vertex -0.927052 -42.8532 5
      vertex 0.927051 -42.8532 0
      vertex -0.927052 -42.8532 0
    endloop
  endfacet
  facet normal 0.951057 0.309017 0
    outer loop
      vertex -2.42705 -41.7634 5
      vertex -3 -40 0
      vertex -3 -40 5
    endloop
  endfacet
  facet normal 0.951057 0.309017 0
    outer loop
      vertex -3 -40 0
      vertex -2.42705 -41.7634 5
      vertex -2.42705 -41.7634 0
    endloop
  endfacet
  facet normal -0.951056 0.309017 0
    outer loop
      vertex 2.42705 -41.7634 0
      vertex 3 -40 5
      vertex 3 -40 0
    endloop
  endfacet
  facet normal -0.951056 0.309017 0
    outer loop
      vertex 3 -40 5
      vertex 2.42705 -41.7634 0
      vertex 2.42705 -41.7634 5
    endloop
  endfacet
  facet normal -0.951056 -0.309017 0
    outer loop
      vertex 3 -30 0
      vertex 2.42705 -28.2366 5
      vertex 2.42705 -28.2366 0
    endloop
  endfacet
  facet normal -0.951056 -0.309017 0
    outer loop
      vertex 2.42705 -28.2366 5
      vertex 3 -30 0
      vertex 3 -30 5
    endloop
  endfacet
  facet normal 0 -1 0
    outer loop
      vertex -0.927052 -27.1468 0
      vertex 0.927051 -27.1468 5
      vertex -0.927052 -27.1468 5
    endloop
  endfacet
  facet normal 0 -1 -0
    outer loop
      vertex 0.927051 -27.1468 5
      vertex -0.927052 -27.1468 0
      vertex 0.927051 -27.1468 0
    endloop
  endfacet
  facet normal -0.587785 -0.809017 0
    outer loop
      vertex 0.927051 -27.1468 0
      vertex 2.42705 -28.2366 5
      vertex 0.927051 -27.1468 5
    endloop
  endfacet
  facet normal -0.587785 -0.809017 -0
    outer loop
      vertex 2.42705 -28.2366 5
      vertex 0.927051 -27.1468 0
      vertex 2.42705 -28.2366 0
    endloop
  endfacet
  facet normal 0.951057 0.309017 0
    outer loop
      vertex -2.42705 -31.7634 5
      vertex -3 -30 0
      vertex -3 -30 5
    endloop
  endfacet
  facet normal 0.951057 0.309017 0
    outer loop
      vertex -3 -30 0
      vertex -2.42705 -31.7634 5
      vertex -2.42705 -31.7634 0
    endloop
  endfacet
  facet normal 0.587785 -0.809017 0
    outer loop
      vertex -2.42705 -28.2366 0
      vertex -0.927052 -27.1468 5
      vertex -2.42705 -28.2366 5
    endloop
  endfacet
  facet normal 0.587785 -0.809017 0
    outer loop
      vertex -0.927052 -27.1468 5
      vertex -2.42705 -28.2366 0
      vertex -0.927052 -27.1468 0
    endloop
  endfacet
  facet normal -0.951056 0.309017 0
    outer loop
      vertex 2.42705 -31.7634 0
      vertex 3 -30 5
      vertex 3 -30 0
    endloop
  endfacet
  facet normal -0.951056 0.309017 0
    outer loop
      vertex 3 -30 5
      vertex 2.42705 -31.7634 0
      vertex 2.42705 -31.7634 5
    endloop
  endfacet
  facet normal -0.587786 0.809016 0
    outer loop
      vertex 2.42705 -31.7634 0
      vertex 0.927051 -32.8532 5
      vertex 2.42705 -31.7634 5
    endloop
  endfacet
  facet normal -0.587786 0.809016 0
    outer loop
      vertex 0.927051 -32.8532 5
      vertex 2.42705 -31.7634 0
      vertex 0.927051 -32.8532 0
    endloop
  endfacet
  facet normal 0.587786 0.809016 -0
    outer loop
      vertex -0.927052 -32.8532 0
      vertex -2.42705 -31.7634 5
      vertex -0.927052 -32.8532 5
    endloop
  endfacet
  facet normal 0.587786 0.809016 0
    outer loop
      vertex -2.42705 -31.7634 5
      vertex -0.927052 -32.8532 0
      vertex -2.42705 -31.7634 0
    endloop
  endfacet
  facet normal 0 1 -0
    outer loop
      vertex 0.927051 -32.8532 0
      vertex -0.927052 -32.8532 5
      vertex 0.927051 -32.8532 5
    endloop
  endfacet
  facet normal 0 1 0
    outer loop
      vertex -0.927052 -32.8532 5
      vertex 0.927051 -32.8532 0
      vertex -0.927052 -32.8532 0
    endloop
  endfacet
  facet normal 0.951057 -0.309017 0
    outer loop
      vertex -3 -30 5
      vertex -2.42705 -28.2366 0
      vertex -2.42705 -28.2366 5
    endloop
  endfacet
  facet normal 0.951057 -0.309017 0
    outer loop
      vertex -2.42705 -28.2366 0
      vertex -3 -30 5
      vertex -3 -30 0
    endloop
  endfacet
  facet normal -0.951056 -0.309017 0
    outer loop
      vertex 3 -20 0
      vertex 2.42705 -18.2366 5
      vertex 2.42705 -18.2366 0
    endloop
  endfacet
  facet normal -0.951056 -0.309017 0
    outer loop
      vertex 2.42705 -18.2366 5
      vertex 3 -20 0
      vertex 3 -20 5
    endloop
  endfacet
  facet normal 0 -1 0
    outer loop
      vertex -0.927052 -17.1468 0
      vertex 0.927051 -17.1468 5
      vertex -0.927052 -17.1468 5
    endloop
  endfacet
  facet normal 0 -1 -0
    outer loop
      vertex 0.927051 -17.1468 5
      vertex -0.927052 -17.1468 0
      vertex 0.927051 -17.1468 0
    endloop
  endfacet
  facet normal -0.587785 -0.809017 0
    outer loop
      vertex 0.927051 -17.1468 0
      vertex 2.42705 -18.2366 5
      vertex 0.927051 -17.1468 5
    endloop
  endfacet
  facet normal -0.587785 -0.809017 -0
    outer loop
      vertex 2.42705 -18.2366 5
      vertex 0.927051 -17.1468 0
      vertex 2.42705 -18.2366 0
    endloop
  endfacet
  facet normal 0.587785 -0.809017 0
    outer loop
      vertex -2.42705 -18.2366 0
      vertex -0.927052 -17.1468 5
      vertex -2.42705 -18.2366 5
    endloop
  endfacet
  facet normal 0.587785 -0.809017 0
    outer loop
      vertex -0.927052 -17.1468 5
      vertex -2.42705 -18.2366 0
      vertex -0.927052 -17.1468 0
    endloop
  endfacet
  facet normal -0.587786 0.809017 0
    outer loop
      vertex 2.42705 -21.7634 0
      vertex 0.927051 -22.8532 5
      vertex 2.42705 -21.7634 5
    endloop
  endfacet
  facet normal -0.587786 0.809017 0
    outer loop
      vertex 0.927051 -22.8532 5
      vertex 2.42705 -21.7634 0
      vertex 0.927051 -22.8532 0
    endloop
  endfacet
  facet normal 0.587786 0.809017 -0
    outer loop
      vertex -0.927052 -22.8532 0
      vertex -2.42705 -21.7634 5
      vertex -0.927052 -22.8532 5
    endloop
  endfacet
  facet normal 0.587786 0.809017 0
    outer loop
      vertex -2.42705 -21.7634 5
      vertex -0.927052 -22.8532 0
      vertex -2.42705 -21.7634 0
    endloop
  endfacet
  facet normal 0.951057 -0.309017 0
    outer loop
      vertex -3 -20 5
      vertex -2.42705 -18.2366 0
      vertex -2.42705 -18.2366 5
    endloop
  endfacet
  facet normal 0.951057 -0.309017 0
    outer loop
      vertex -2.42705 -18.2366 0
      vertex -3 -20 5
      vertex -3 -20 0
    endloop
  endfacet
  facet normal -0.951056 0.309017 0
    outer loop
      vertex 2.42705 -21.7634 0
      vertex 3 -20 5
      vertex 3 -20 0
    endloop
  endfacet
  facet normal -0.951056 0.309017 0
    outer loop
      vertex 3 -20 5
      vertex 2.42705 -21.7634 0
      vertex 2.42705 -21.7634 5
    endloop
  endfacet
  facet normal 0 1 -0
    outer loop
      vertex 0.927051 -22.8532 0
      vertex -0.927052 -22.8532 5
      vertex 0.927051 -22.8532 5
    endloop
  endfacet
  facet normal 0 1 0
    outer loop
      vertex -0.927052 -22.8532 5
      vertex 0.927051 -22.8532 0
      vertex -0.927052 -22.8532 0
    endloop
  endfacet
  facet normal 0.951057 0.309017 0
    outer loop
      vertex -2.42705 -21.7634 5
      vertex -3 -20 0
      vertex -3 -20 5
    endloop
  endfacet
  facet normal 0.951057 0.309017 0
    outer loop
      vertex -3 -20 0
      vertex -2.42705 -21.7634 5
      vertex -2.42705 -21.7634 0
    endloop
  endfacet
  facet normal -0.951056 -0.309017 0
    outer loop
      vertex 3 -10 0
      vertex 2.42705 -8.23664 5
      vertex 2.42705 -8.23664 0
    endloop
  endfacet
  facet normal -0.951056 -0.309017 0
    outer loop
      vertex 2.42705 -8.23664 5
      vertex 3 -10 0
      vertex 3 -10 5
    endloop
  endfacet
  facet normal 0.951057 0.309017 0
    outer loop
      vertex -2.42705 -11.7634 5
      vertex -3 -10 0
      vertex -3 -10 5
    endloop
  endfacet
  facet normal 0.951057 0.309017 0
    outer loop
      vertex -3 -10 0
      vertex -2.42705 -11.7634 5
      vertex -2.42705 -11.7634 0
    endloop
  endfacet
  facet normal 0 -1 0
    outer loop
      vertex -0.927052 -7.14683 0
      vertex 0.927051 -7.14683 5
      vertex -0.927052 -7.14683 5
    endloop
  endfacet
  facet normal 0 -1 -0
    outer loop
      vertex 0.927051 -7.14683 5
      vertex -0.927052 -7.14683 0
      vertex 0.927051 -7.14683 0
    endloop
  endfacet
  facet normal -0.587785 -0.809017 0
    outer loop
      vertex 0.927051 -7.14683 0
      vertex 2.42705 -8.23664 5
      vertex 0.927051 -7.14683 5
    endloop
  endfacet
  facet normal -0.587785 -0.809017 -0
    outer loop
      vertex 2.42705 -8.23664 5
      vertex 0.927051 -7.14683 0
      vertex 2.42705 -8.23664 0
    endloop
  endfacet
  facet normal 0.587785 -0.809017 0
    outer loop
      vertex -2.42705 -8.23664 0
      vertex -0.927052 -7.14683 5
      vertex -2.42705 -8.23664 5
    endloop
  endfacet
  facet normal 0.587785 -0.809017 0
    outer loop
      vertex -0.927052 -7.14683 5
      vertex -2.42705 -8.23664 0
      vertex -0.927052 -7.14683 0
    endloop
  endfacet
  facet normal -0.587785 0.809017 0
    outer loop
      vertex 2.42705 -11.7634 0
      vertex 0.927051 -12.8532 5
      vertex 2.42705 -11.7634 5
    endloop
  endfacet
  facet normal -0.587785 0.809017 0
    outer loop
      vertex 0.927051 -12.8532 5
      vertex 2.42705 -11.7634 0
      vertex 0.927051 -12.8532 0
    endloop
  endfacet
  facet normal 0.587785 0.809017 -0
    outer loop
      vertex -0.927052 -12.8532 0
      vertex -2.42705 -11.7634 5
      vertex -0.927052 -12.8532 5
    endloop
  endfacet
  facet normal 0.587785 0.809017 0
    outer loop
      vertex -2.42705 -11.7634 5
      vertex -0.927052 -12.8532 0
      vertex -2.42705 -11.7634 0
    endloop
  endfacet
  facet normal 0.951057 -0.309017 0
    outer loop
      vertex -3 -10 5
      vertex -2.42705 -8.23664 0
      vertex -2.42705 -8.23664 5
    endloop
  endfacet
  facet normal 0.951057 -0.309017 0
    outer loop
      vertex -2.42705 -8.23664 0
      vertex -3 -10 5
      vertex -3 -10 0
    endloop
  endfacet
  facet normal 0 1 -0
    outer loop
      vertex 0.927051 -12.8532 0
      vertex -0.927052 -12.8532 5
      vertex 0.927051 -12.8532 5
    endloop
  endfacet
  facet normal 0 1 0
    outer loop
      vertex -0.927052 -12.8532 5
      vertex 0.927051 -12.8532 0
      vertex -0.927052 -12.8532 0
    endloop
  endfacet
  facet normal -0.951056 0.309017 0
    outer loop
      vertex 2.42705 -11.7634 0
      vertex 3 -10 5
      vertex 3 -10 0
    endloop
  endfacet
  facet normal -0.951056 0.309017 0
    outer loop
      vertex 3 -10 5
      vertex 2.42705 -11.7634 0
      vertex 2.42705 -11.7634 5
    endloop
  endfacet
  facet normal -0.951056 -0.309017 0
    outer loop
      vertex 3 0 0
      vertex 2.42705 1.76336 5
      vertex 2.42705 1.76336 0
    endloop
  endfacet
  facet normal -0.951056 -0.309017 0
    outer loop
      vertex 2.42705 1.76336 5
      vertex 3 0 0
      vertex 3 0 5
    endloop
  endfacet
  facet normal 0 -1 0
    outer loop
      vertex -0.927052 2.85317 0
      vertex 0.927051 2.85317 5
      vertex -0.927052 2.85317 5
    endloop
  endfacet
  facet normal 0 -1 -0
    outer loop
      vertex 0.927051 2.85317 5
      vertex -0.927052 2.85317 0
      vertex 0.927051 2.85317 0
    endloop
  endfacet
  facet normal -0.587785 -0.809017 0
    outer loop
      vertex 0.927051 2.85317 0
      vertex 2.42705 1.76336 5
      vertex 0.927051 2.85317 5
    endloop
  endfacet
  facet normal -0.587785 -0.809017 -0
    outer loop
      vertex 2.42705 1.76336 5
      vertex 0.927051 2.85317 0
      vertex 2.42705 1.76336 0
    endloop
  endfacet
  facet normal 0.951057 0.309017 0
    outer loop
      vertex -2.42705 -1.76336 5
      vertex -3 0 0
      vertex -3 0 5
    endloop
  endfacet
  facet normal 0.951057 0.309017 0
    outer loop
      vertex -3 0 0
      vertex -2.42705 -1.76336 5
      vertex -2.42705 -1.76336 0
    endloop
  endfacet
  facet normal 0.587785 -0.809017 0
    outer loop
      vertex -2.42705 1.76336 0
      vertex -0.927052 2.85317 5
      vertex -2.42705 1.76336 5
    endloop
  endfacet
  facet normal 0.587785 -0.809017 0
    outer loop
      vertex -0.927052 2.85317 5
      vertex -2.42705 1.76336 0
      vertex -0.927052 2.85317 0
    endloop
  endfacet
  facet normal -0.951056 0.309017 0
    outer loop
      vertex 2.42705 -1.76336 0
      vertex 3 0 5
      vertex 3 0 0
    endloop
  endfacet
  facet normal -0.951056 0.309017 0
    outer loop
      vertex 3 0 5
      vertex 2.42705 -1.76336 0
      vertex 2.42705 -1.76336 5
    endloop
  endfacet
  facet normal -0.587785 0.809017 0
    outer loop
      vertex 2.42705 -1.76336 0
      vertex 0.927051 -2.85317 5
      vertex 2.42705 -1.76336 5
    endloop
  endfacet
  facet normal -0.587785 0.809017 0
    outer loop
      vertex 0.927051 -2.85317 5
      vertex 2.42705 -1.76336 0
      vertex 0.927051 -2.85317 0
    endloop
  endfacet
  facet normal 0.587785 0.809017 -0
    outer loop
      vertex -0.927052 -2.85317 0
      vertex -2.42705 -1.76336 5
      vertex -0.927052 -2.85317 5
    endloop
  endfacet
  facet normal 0.587785 0.809017 0
    outer loop
      vertex -2.42705 -1.76336 5
      vertex -0.927052 -2.85317 0
      vertex -2.42705 -1.76336 0
    endloop
  endfacet
  facet normal 0 1 -0
    outer loop
      vertex 0.927051 -2.85317 0
      vertex -0.927052 -2.85317 5
      vertex 0.927051 -2.85317 5
    endloop
  endfacet
  facet normal 0 1 0
    outer loop
      vertex -0.927052 -2.85317 5
      vertex 0.927051 -2.85317 0
      vertex -0.927052 -2.85317 0
    endloop
  endfacet
  facet normal 0.951057 -0.309017 0
    outer loop
      vertex -3 0 5
      vertex -2.42705 1.76336 0
      vertex -2.42705 1.76336 5
    endloop
  endfacet
  facet normal 0.951057 -0.309017 0
    outer loop
      vertex -2.42705 1.76336 0
      vertex -3 0 5
      vertex -3 0 0
    endloop
  endfacet
  facet normal -0.951056 -0.309017 0
    outer loop
      vertex 3 10 0
      vertex 2.42705 11.7634 5
      vertex 2.42705 11.7634 0
    endloop
  endfacet
  facet normal -0.951056 -0.309017 0
    outer loop
      vertex 2.42705 11.7634 5
      vertex 3 10 0
      vertex 3 10 5
    endloop
  endfacet
  facet normal 0.951057 0.309017 0
    outer loop
      vertex -2.42705 8.23664 5
      vertex -3 10 0
      vertex -3 10 5
    endloop
  endfacet
  facet normal 0.951057 0.309017 0
    outer loop
      vertex -3 10 0
      vertex -2.42705 8.23664 5
      vertex -2.42705 8.23664 0
    endloop
  endfacet
  facet normal 0 -1 0
    outer loop
      vertex -0.927052 12.8532 0
      vertex 0.927051 12.8532 5
      vertex -0.927052 12.8532 5
    endloop
  endfacet
  facet normal 0 -1 -0
    outer loop
      vertex 0.927051 12.8532 5
      vertex -0.927052 12.8532 0
      vertex 0.927051 12.8532 0
    endloop
  endfacet
  facet normal -0.587785 -0.809017 0
    outer loop
      vertex 0.927051 12.8532 0
      vertex 2.42705 11.7634 5
      vertex 0.927051 12.8532 5
    endloop
  endfacet
  facet normal -0.587785 -0.809017 -0
    outer loop
      vertex 2.42705 11.7634 5
      vertex 0.927051 12.8532 0
      vertex 2.42705 11.7634 0
    endloop
  endfacet
  facet normal 0.587785 -0.809017 0
    outer loop
      vertex -2.42705 11.7634 0
      vertex -0.927052 12.8532 5
      vertex -2.42705 11.7634 5
    endloop
  endfacet
  facet normal 0.587785 -0.809017 0
    outer loop
      vertex -0.927052 12.8532 5
      vertex -2.42705 11.7634 0
      vertex -0.927052 12.8532 0
    endloop
  endfacet
  facet normal -0.587785 0.809017 0
    outer loop
      vertex 2.42705 8.23664 0
      vertex 0.927051 7.14683 5
      vertex 2.42705 8.23664 5
    endloop
  endfacet
  facet normal -0.587785 0.809017 0
    outer loop
      vertex 0.927051 7.14683 5
      vertex 2.42705 8.23664 0
      vertex 0.927051 7.14683 0
    endloop
  endfacet
  facet normal 0.587785 0.809017 -0
    outer loop
      vertex -0.927052 7.14683 0
      vertex -2.42705 8.23664 5
      vertex -0.927052 7.14683 5
    endloop
  endfacet
  facet normal 0.587785 0.809017 0
    outer loop
      vertex -2.42705 8.23664 5
      vertex -0.927052 7.14683 0
      vertex -2.42705 8.23664 0
    endloop
  endfacet
  facet normal 0.951057 -0.309017 0
    outer loop
      vertex -3 10 5
      vertex -2.42705 11.7634 0
      vertex -2.42705 11.7634 5
    endloop
  endfacet
  facet normal 0.951057 -0.309017 0
    outer loop
      vertex -2.42705 11.7634 0
      vertex -3 10 5
      vertex -3 10 0
    endloop
  endfacet
  facet normal -0.951056 0.309017 0
    outer loop
      vertex 2.42705 8.23664 0
      vertex 3 10 5
      vertex 3 10 0
    endloop
  endfacet
  facet normal -0.951056 0.309017 0
    outer loop
      vertex 3 10 5
      vertex 2.42705 8.23664 0
      vertex 2.42705 8.23664 5
    endloop
  endfacet
  facet normal 0 1 -0
    outer loop
      vertex 0.927051 7.14683 0
      vertex -0.927052 7.14683 5
      vertex 0.927051 7.14683 5
    endloop
  endfacet
  facet normal 0 1 0
    outer loop
      vertex -0.927052 7.14683 5
      vertex 0.927051 7.14683 0
      vertex -0.927052 7.14683 0
    endloop
  endfacet
  facet normal -0.951056 -0.309017 0
    outer loop
      vertex 3 20 0
      vertex 2.42705 21.7634 5
      vertex 2.42705 21.7634 0
    endloop
  endfacet
  facet normal -0.951056 -0.309017 0
    outer loop
      vertex 2.42705 21.7634 5
      vertex 3 20 0
      vertex 3 20 5
    endloop
  endfacet
  facet normal 0.951057 0.309017 0
    outer loop
      vertex -2.42705 18.2366 5
      vertex -3 20 0
      vertex -3 20 5
    endloop
  endfacet
  facet normal 0.951057 0.309017 0
    outer loop
      vertex -3 20 0
      vertex -2.42705 18.2366 5
      vertex -2.42705 18.2366 0
    endloop
  endfacet
  facet normal 0 -1 0
    outer loop
      vertex -0.927052 22.8532 0
      vertex 0.927051 22.8532 5
      vertex -0.927052 22.8532 5
    endloop
  endfacet
  facet normal 0 -1 -0
    outer loop
      vertex 0.927051 22.8532 5
      vertex -0.927052 22.8532 0
      vertex 0.927051 22.8532 0
    endloop
  endfacet
  facet normal -0.587785 -0.809017 0
    outer loop
      vertex 0.927051 22.8532 0
      vertex 2.42705 21.7634 5
      vertex 0.927051 22.8532 5
    endloop
  endfacet
  facet normal -0.587785 -0.809017 -0
    outer loop
      vertex 2.42705 21.7634 5
      vertex 0.927051 22.8532 0
      vertex 2.42705 21.7634 0
    endloop
  endfacet
  facet normal 0.587785 -0.809017 0
    outer loop
      vertex -2.42705 21.7634 0
      vertex -0.927052 22.8532 5
      vertex -2.42705 21.7634 5
    endloop
  endfacet
  facet normal 0.587785 -0.809017 0
    outer loop
      vertex -0.927052 22.8532 5
      vertex -2.42705 21.7634 0
      vertex -0.927052 22.8532 0
    endloop
  endfacet
  facet normal -0.587786 0.809017 0
    outer loop
      vertex 2.42705 18.2366 0
      vertex 0.927051 17.1468 5
      vertex 2.42705 18.2366 5
    endloop
  endfacet
  facet normal -0.587786 0.809017 0
    outer loop
      vertex 0.927051 17.1468 5
      vertex 2.42705 18.2366 0
      vertex 0.927051 17.1468 0
    endloop
  endfacet
  facet normal 0.587786 0.809017 -0
    outer loop
      vertex -0.927052 17.1468 0
      vertex -2.42705 18.2366 5
      vertex -0.927052 17.1468 5
    endloop
  endfacet
  facet normal 0.587786 0.809017 0
    outer loop
      vertex -2.42705 18.2366 5
      vertex -0.927052 17.1468 0
      vertex -2.42705 18.2366 0
    endloop
  endfacet
  facet normal 0.951057 -0.309017 0
    outer loop
      vertex -3 20 5
      vertex -2.42705 21.7634 0
      vertex -2.42705 21.7634 5
    endloop
  endfacet
  facet normal 0.951057 -0.309017 0
    outer loop
      vertex -2.42705 21.7634 0
      vertex -3 20 5
      vertex -3 20 0
    endloop
  endfacet
  facet normal -0.951056 0.309017 0
    outer loop
      vertex 2.42705 18.2366 0
      vertex 3 20 5
      vertex 3 20 0
    endloop
  endfacet
  facet normal -0.951056 0.309017 0
    outer loop
      vertex 3 20 5
      vertex 2.42705 18.2366 0
      vertex 2.42705 18.2366 5
    endloop
  endfacet
  facet normal 0 1 -0
    outer loop
      vertex 0.927051 17.1468 0
      vertex -0.927052 17.1468 5
      vertex 0.927051 17.1468 5
    endloop
  endfacet
  facet normal 0 1 0
    outer loop
      vertex -0.927052 17.1468 5
      vertex 0.927051 17.1468 0
      vertex -0.927052 17.1468 0
    endloop
  endfacet
  facet normal -0.951056 -0.309017 0
    outer loop
      vertex 3 30 0
      vertex 2.42705 31.7634 5
      vertex 2.42705 31.7634 0
    endloop
  endfacet
  facet normal -0.951056 -0.309017 0
    outer loop
      vertex 2.42705 31.7634 5
      vertex 3 30 0
      vertex 3 30 5
    endloop
  endfacet
  facet normal 0.951057 0.309017 0
    outer loop
      vertex -2.42705 28.2366 5
      vertex -3 30 0
      vertex -3 30 5
    endloop
  endfacet
  facet normal 0.951057 0.309017 0
    outer loop
      vertex -3 30 0
      vertex -2.42705 28.2366 5
      vertex -2.42705 28.2366 0
    endloop
  endfacet
  facet normal 0 -1 0
    outer loop
      vertex -0.927052 32.8532 0
      vertex 0.927051 32.8532 5
      vertex -0.927052 32.8532 5
    endloop
  endfacet
  facet normal 0 -1 -0
    outer loop
      vertex 0.927051 32.8532 5
      vertex -0.927052 32.8532 0
      vertex 0.927051 32.8532 0
    endloop
  endfacet
  facet normal -0.587785 -0.809017 0
    outer loop
      vertex 0.927051 32.8532 0
      vertex 2.42705 31.7634 5
      vertex 0.927051 32.8532 5
    endloop
  endfacet
  facet normal -0.587785 -0.809017 -0
    outer loop
      vertex 2.42705 31.7634 5
      vertex 0.927051 32.8532 0
      vertex 2.42705 31.7634 0
    endloop
  endfacet
  facet normal 0.587785 -0.809017 0
    outer loop
      vertex -2.42705 31.7634 0
      vertex -0.927052 32.8532 5
      vertex -2.42705 31.7634 5
    endloop
  endfacet
  facet normal 0.587785 -0.809017 0
    outer loop
      vertex -0.927052 32.8532 5
      vertex -2.42705 31.7634 0
      vertex -0.927052 32.8532 0
    endloop
  endfacet
  facet normal -0.587786 0.809017 0
    outer loop
      vertex 2.42705 28.2366 0
      vertex 0.927051 27.1468 5
      vertex 2.42705 28.2366 5
    endloop
  endfacet
  facet normal -0.587786 0.809017 0
    outer loop
      vertex 0.927051 27.1468 5
      vertex 2.42705 28.2366 0
      vertex 0.927051 27.1468 0
    endloop
  endfacet
  facet normal 0.587786 0.809017 -0
    outer loop
      vertex -0.927052 27.1468 0
      vertex -2.42705 28.2366 5
      vertex -0.927052 27.1468 5
    endloop
  endfacet
  facet normal 0.587786 0.809017 0
    outer loop
      vertex -2.42705 28.2366 5
      vertex -0.927052 27.1468 0
      vertex -2.42705 28.2366 0
    endloop
  endfacet
  facet normal 0.951057 -0.309017 0
    outer loop
      vertex -3 30 5
      vertex -2.42705 31.7634 0
      vertex -2.42705 31.7634 5
    endloop
  endfacet
  facet normal 0.951057 -0.309017 0
    outer loop
      vertex -2.42705 31.7634 0
      vertex -3 30 5
      vertex -3 30 0
    endloop
  endfacet
  facet normal 0 1 -0
    outer loop
      vertex 0.927051 27.1468 0
      vertex -0.927052 27.1468 5
      vertex 0.927051 27.1468 5
    endloop
  endfacet
  facet normal 0 1 0
    outer loop
      vertex -0.927052 27.1468 5
      vertex 0.927051 27.1468 0
      vertex -0.927052 27.1468 0
    endloop
  endfacet
  facet normal -0.951056 0.309017 0
    outer loop
      vertex 2.42705 28.2366 0
      vertex 3 30 5
      vertex 3 30 0
    endloop
  endfacet
  facet normal -0.951056 0.309017 0
    outer loop
      vertex 3 30 5
      vertex 2.42705 28.2366 0
      vertex 2.42705 28.2366 5
    endloop
  endfacet
  facet normal -0.951056 -0.309017 0
    outer loop
      vertex 3 40 0
      vertex 2.42705 41.7634 5
      vertex 2.42705 41.7634 0
    endloop
  endfacet
  facet normal -0.951056 -0.309017 0
    outer loop
      vertex 2.42705 41.7634 5
      vertex 3 40 0
      vertex 3 40 5
    endloop
  endfacet
  facet normal 0.951057 0.309017 0
    outer loop
      vertex -2.42705 38.2366 5
      vertex -3 40 0
      vertex -3 40 5
    endloop
  endfacet
  facet normal 0.951057 0.309017 0
    outer loop
      vertex -3 40 0
      vertex -2.42705 38.2366 5
      vertex -2.42705 38.2366 0
    endloop
  endfacet
  facet normal 0 -1 0
    outer loop
      vertex -0.927052 42.8532 0
      vertex 0.927051 42.8532 5
      vertex -0.927052 42.8532 5
    endloop
  endfacet
  facet normal 0 -1 -0
    outer loop
      vertex 0.927051 42.8532 5
      vertex -0.927052 42.8532 0
      vertex 0.927051 42.8532 0
    endloop
  endfacet
  facet normal -0.587785 -0.809017 0
    outer loop
      vertex 0.927051 42.8532 0
      vertex 2.42705 41.7634 5
      vertex 0.927051 42.8532 5
    endloop
  endfacet
  facet normal -0.587785 -0.809017 -0
    outer loop
      vertex 2.42705 41.7634 5
      vertex 0.927051 42.8532 0
      vertex 2.42705 41.7634 0
    endloop
  endfacet
  facet normal 0.587785 -0.809017 0
    outer loop
      vertex -2.42705 41.7634 0
      vertex -0.927052 42.8532 5
      vertex -2.42705 41.7634 5
    endloop
  endfacet
  facet normal 0.587785 -0.809017 0
    outer loop
      vertex -0.927052 42.8532 5
      vertex -2.42705 41.7634 0
      vertex -0.927052 42.8532 0
    endloop
  endfacet
  facet normal -0.587786 0.809016 0
    outer loop
      vertex 2.42705 38.2366 0
      vertex 0.927051 37.1468 5
      vertex 2.42705 38.2366 5
    endloop
  endfacet
  facet normal -0.587786 0.809016 0
    outer loop
      vertex 0.927051 37.1468 5
      vertex 2.42705 38.2366 0
      vertex 0.927051 37.1468 0
    endloop
  endfacet
  facet normal 0.587786 0.809016 -0
    outer loop
      vertex -0.927052 37.1468 0
      vertex -2.42705 38.2366 5
      vertex -0.927052 37.1468 5
    endloop
  endfacet
  facet normal 0.587786 0.809016 0
    outer loop
      vertex -2.42705 38.2366 5
      vertex -0.927052 37.1468 0
      vertex -2.42705 38.2366 0
    endloop
  endfacet
  facet normal 0.951057 -0.309017 0
    outer loop
      vertex -3 40 5
      vertex -2.42705 41.7634 0
      vertex -2.42705 41.7634 5
    endloop
  endfacet
  facet normal 0.951057 -0.309017 0
    outer loop
      vertex -2.42705 41.7634 0
      vertex -3 40 5
      vertex -3 40 0
    endloop
  endfacet
  facet normal 0 1 -0
    outer loop
      vertex 0.927051 37.1468 0
      vertex -0.927052 37.1468 5
      vertex 0.927051 37.1468 5
    endloop
  endfacet
  facet normal 0 1 0
    outer loop
      vertex -0.927052 37.1468 5
      vertex 0.927051 37.1468 0
      vertex -0.927052 37.1468 0
    endloop
  endfacet
  facet normal -0.951056 0.309017 0
    outer loop
      vertex 2.42705 38.2366 0
      vertex 3 40 5
      vertex 3 40 0
    endloop
  endfacet
  facet normal -0.951056 0.309017 0
    outer loop
      vertex 3 40 5
      vertex 2.42705 38.2366 0
      vertex 2.42705 38.2366 5
    endloop
  endfacet
  facet normal -1 0 0
    outer loop
      vertex -5 -50 0
      vertex -5 50 5
      vertex -5 50 0
    endloop
  endfacet
  facet normal -1 -0 0
    outer loop
      vertex -5 50 5
      vertex -5 -50 0
      vertex -5 -50 5
    endloop
  endfacet
  facet normal -0 0 1
    outer loop
      vertex 2.42705 -31.7634 5
      vertex 3 -40 5
      vertex 3 -30 5
    endloop
  endfacet
  facet normal 0 0 1
    outer loop
      vertex 2.42705 -31.7634 5
      vertex 2.42705 -38.2366 5
      vertex 3 -40 5
    endloop
  endfacet
  facet normal -0 0 1
    outer loop
      vertex 0.927051 -32.8532 5
      vertex 2.42705 -38.2366 5
      vertex 2.42705 -31.7634 5
    endloop
  endfacet
  facet normal 0 0 1
    outer loop
      vertex 0.927051 -32.8532 5
      vertex 0.927051 -37.1468 5
      vertex 2.42705 -38.2366 5
    endloop
  endfacet
  facet normal -0 0 1
    outer loop
      vertex -0.927052 -32.8532 5
      vertex 0.927051 -37.1468 5
      vertex 0.927051 -32.8532 5
    endloop
  endfacet
  facet normal 0 0 1
    outer loop
      vertex -0.927052 -32.8532 5
      vertex -0.927052 -37.1468 5
      vertex 0.927051 -37.1468 5
    endloop
  endfacet
  facet normal 0 0 1
    outer loop
      vertex -2.42705 -31.7634 5
      vertex -0.927052 -37.1468 5
      vertex -0.927052 -32.8532 5
    endloop
  endfacet
  facet normal 0 0 1
    outer loop
      vertex -2.42705 -31.7634 5
      vertex -2.42705 -38.2366 5
      vertex -0.927052 -37.1468 5
    endloop
  endfacet
  facet normal 0 0 1
    outer loop
      vertex -3 -30 5
      vertex -2.42705 -38.2366 5
      vertex -2.42705 -31.7634 5
    endloop
  endfacet
  facet normal 0 0 1
    outer loop
      vertex -2.42705 -38.2366 5
      vertex -3 -30 5
      vertex -3 -40 5
    endloop
  endfacet
  facet normal -0 0 1
    outer loop
      vertex 2.42705 -21.7634 5
      vertex 3 -30 5
      vertex 3 -20 5
    endloop
  endfacet
  facet normal 0 0 1
    outer loop
      vertex 2.42705 -21.7634 5
      vertex 2.42705 -28.2366 5
      vertex 3 -30 5
    endloop
  endfacet
  facet normal -0 0 1
    outer loop
      vertex 0.927051 -22.8532 5
      vertex 2.42705 -28.2366 5
      vertex 2.42705 -21.7634 5
    endloop
  endfacet
  facet normal 0 0 1
    outer loop
      vertex 0.927051 -22.8532 5
      vertex 0.927051 -27.1468 5
      vertex 2.42705 -28.2366 5
    endloop
  endfacet
  facet normal -0 0 1
    outer loop
      vertex -0.927052 -22.8532 5
      vertex 0.927051 -27.1468 5
      vertex 0.927051 -22.8532 5
    endloop
  endfacet
  facet normal 0 0 1
    outer loop
      vertex -0.927052 -22.8532 5
      vertex -0.927052 -27.1468 5
      vertex 0.927051 -27.1468 5
    endloop
  endfacet
  facet normal 0 0 1
    outer loop
      vertex -2.42705 -21.7634 5
      vertex -0.927052 -27.1468 5
      vertex -0.927052 -22.8532 5
    endloop
  endfacet
  facet normal 0 0 1
    outer loop
      vertex -2.42705 -21.7634 5
      vertex -2.42705 -28.2366 5
      vertex -0.927052 -27.1468 5
    endloop
  endfacet
  facet normal 0 0 1
    outer loop
      vertex -3 -20 5
      vertex -2.42705 -28.2366 5
      vertex -2.42705 -21.7634 5
    endloop
  endfacet
  facet normal 0 0 1
    outer loop
      vertex -2.42705 -28.2366 5
      vertex -3 -20 5
      vertex -3 -30 5
    endloop
  endfacet
  facet normal -0 0 1
    outer loop
      vertex 2.42705 -11.7634 5
      vertex 3 -20 5
      vertex 3 -10 5
    endloop
  endfacet
  facet normal 0 0 1
    outer loop
      vertex 2.42705 -11.7634 5
      vertex 2.42705 -18.2366 5
      vertex 3 -20 5
    endloop
  endfacet
  facet normal -0 0 1
    outer loop
      vertex 0.927051 -12.8532 5
      vertex 2.42705 -18.2366 5
      vertex 2.42705 -11.7634 5
    endloop
  endfacet
  facet normal 0 0 1
    outer loop
      vertex 0.927051 -12.8532 5
      vertex 0.927051 -17.1468 5
      vertex 2.42705 -18.2366 5
    endloop
  endfacet
  facet normal -0 0 1
    outer loop
      vertex -0.927052 -12.8532 5
      vertex 0.927051 -17.1468 5
      vertex 0.927051 -12.8532 5
    endloop
  endfacet
  facet normal 0 0 1
    outer loop
      vertex -0.927052 -12.8532 5
      vertex -0.927052 -17.1468 5
      vertex 0.927051 -17.1468 5
    endloop
  endfacet
  facet normal 0 0 1
    outer loop
      vertex -2.42705 -11.7634 5
      vertex -0.927052 -17.1468 5
      vertex -0.927052 -12.8532 5
    endloop
  endfacet
  facet normal 0 0 1
    outer loop
      vertex -2.42705 -11.7634 5
      vertex -2.42705 -18.2366 5
      vertex -0.927052 -17.1468 5
    endloop
  endfacet
  facet normal 0 0 1
    outer loop
      vertex -3 -10 5
      vertex -2.42705 -18.2366 5
      vertex -2.42705 -11.7634 5
    endloop
  endfacet
  facet normal 0 0 1
    outer loop
      vertex -2.42705 -18.2366 5
      vertex -3 -10 5
      vertex -3 -20 5
    endloop
  endfacet
  facet normal -0 0 1
    outer loop
      vertex 2.42705 -1.76336 5
      vertex 3 -10 5
      vertex 3 0 5
    endloop
  endfacet
  facet normal 0 0 1
    outer loop
      vertex 2.42705 -1.76336 5
      vertex 2.42705 -8.23664 5
      vertex 3 -10 5
    endloop
  endfacet
  facet normal -0 0 1
    outer loop
      vertex 0.927051 -2.85317 5
      vertex 2.42705 -8.23664 5
      vertex 2.42705 -1.76336 5
    endloop
  endfacet
  facet normal 0 0 1
    outer loop
      vertex 0.927051 -2.85317 5
      vertex 0.927051 -7.14683 5
      vertex 2.42705 -8.23664 5
    endloop
  endfacet
  facet normal -0 0 1
    outer loop
      vertex -0.927052 -2.85317 5
      vertex 0.927051 -7.14683 5
      vertex 0.927051 -2.85317 5
    endloop
  endfacet
  facet normal 0 0 1
    outer loop
      vertex -0.927052 -2.85317 5
      vertex -0.927052 -7.14683 5
      vertex 0.927051 -7.14683 5
    endloop
  endfacet
  facet normal 0 0 1
    outer loop
      vertex -2.42705 -1.76336 5
      vertex -0.927052 -7.14683 5
      vertex -0.927052 -2.85317 5
    endloop
  endfacet
  facet normal 0 0 1
    outer loop
      vertex -2.42705 -1.76336 5
      vertex -2.42705 -8.23664 5
      vertex -0.927052 -7.14683 5
    endloop
  endfacet
  facet normal 0 0 1
    outer loop
      vertex -3 0 5
      vertex -2.42705 -8.23664 5
      vertex -2.42705 -1.76336 5
    endloop
  endfacet
  facet normal 0 0 1
    outer loop
      vertex -2.42705 -8.23664 5
      vertex -3 0 5
      vertex -3 -10 5
    endloop
  endfacet
  facet normal -0 0 1
    outer loop
      vertex 2.42705 8.23664 5
      vertex 3 0 5
      vertex 3 10 5
    endloop
  endfacet
  facet normal 0 0 1
    outer loop
      vertex 2.42705 8.23664 5
      vertex 2.42705 1.76336 5
      vertex 3 0 5
    endloop
  endfacet
  facet normal -0 0 1
    outer loop
      vertex 0.927051 7.14683 5
      vertex 2.42705 1.76336 5
      vertex 2.42705 8.23664 5
    endloop
  endfacet
  facet normal 0 0 1
    outer loop
      vertex 0.927051 7.14683 5
      vertex 0.927051 2.85317 5
      vertex 2.42705 1.76336 5
    endloop
  endfacet
  facet normal -0 0 1
    outer loop
      vertex -0.927052 7.14683 5
      vertex 0.927051 2.85317 5
      vertex 0.927051 7.14683 5
    endloop
  endfacet
  facet normal 0 0 1
    outer loop
      vertex -0.927052 7.14683 5
      vertex -0.927052 2.85317 5
      vertex 0.927051 2.85317 5
    endloop
  endfacet
  facet normal 0 0 1
    outer loop
      vertex -2.42705 8.23664 5
      vertex -0.927052 2.85317 5
      vertex -0.927052 7.14683 5
    endloop
  endfacet
  facet normal 0 0 1
    outer loop
      vertex -2.42705 8.23664 5
      vertex -2.42705 1.76336 5
      vertex -0.927052 2.85317 5
    endloop
  endfacet
  facet normal 0 0 1
    outer loop
      vertex -3 10 5
      vertex -2.42705 1.76336 5
      vertex -2.42705 8.23664 5
    endloop
  endfacet
  facet normal 0 0 1
    outer loop
      vertex -2.42705 1.76336 5
      vertex -3 10 5
      vertex -3 0 5
    endloop
  endfacet
  facet normal -0 0 1
    outer loop
      vertex 2.42705 18.2366 5
      vertex 3 10 5
      vertex 3 20 5
    endloop
  endfacet
  facet normal 0 0 1
    outer loop
      vertex 2.42705 18.2366 5
      vertex 2.42705 11.7634 5
      vertex 3 10 5
    endloop
  endfacet
  facet normal -0 0 1
    outer loop
      vertex 0.927051 17.1468 5
      vertex 2.42705 11.7634 5
      vertex 2.42705 18.2366 5
    endloop
  endfacet
  facet normal 0 0 1
    outer loop
      vertex 0.927051 17.1468 5
      vertex 0.927051 12.8532 5
      vertex 2.42705 11.7634 5
    endloop
  endfacet
  facet normal -0 0 1
    outer loop
      vertex -0.927052 17.1468 5
      vertex 0.927051 12.8532 5
      vertex 0.927051 17.1468 5
    endloop
  endfacet
  facet normal 0 0 1
    outer loop
      vertex -0.927052 17.1468 5
      vertex -0.927052 12.8532 5
      vertex 0.927051 12.8532 5
    endloop
  endfacet
  facet normal 0 0 1
    outer loop
      vertex -2.42705 18.2366 5
      vertex -0.927052 12.8532 5
      vertex -0.927052 17.1468 5
    endloop
  endfacet
  facet normal 0 0 1
    outer loop
      vertex -2.42705 18.2366 5
      vertex -2.42705 11.7634 5
      vertex -0.927052 12.8532 5
    endloop
  endfacet
  facet normal 0 0 1
    outer loop
      vertex -3 20 5
      vertex -2.42705 11.7634 5
      vertex -2.42705 18.2366 5
    endloop
  endfacet
  facet normal 0 0 1
    outer loop
      vertex -2.42705 11.7634 5
      vertex -3 20 5
      vertex -3 10 5
    endloop
  endfacet
  facet normal -0 0 1
    outer loop
      vertex 2.42705 28.2366 5
      vertex 3 20 5
      vertex 3 30 5
    endloop
  endfacet
  facet normal 0 0 1
    outer loop
      vertex 2.42705 28.2366 5
      vertex 2.42705 21.7634 5
      vertex 3 20 5
    endloop
  endfacet
  facet normal -0 0 1
    outer loop
      vertex 0.927051 27.1468 5
      vertex 2.42705 21.7634 5
      vertex 2.42705 28.2366 5
    endloop
  endfacet
  facet normal 0 0 1
    outer loop
      vertex 0.927051 27.1468 5
      vertex 0.927051 22.8532 5
      vertex 2.42705 21.7634 5
    endloop
  endfacet
  facet normal -0 0 1
    outer loop
      vertex -0.927052 27.1468 5
      vertex 0.927051 22.8532 5
      vertex 0.927051 27.1468 5
    endloop
  endfacet
  facet normal 0 0 1
    outer loop
      vertex -0.927052 27.1468 5
      vertex -0.927052 22.8532 5
      vertex 0.927051 22.8532 5
    endloop
  endfacet
  facet normal 0 0 1
    outer loop
      vertex -2.42705 28.2366 5
      vertex -0.927052 22.8532 5
      vertex -0.927052 27.1468 5
    endloop
  endfacet
  facet normal 0 0 1
    outer loop
      vertex -2.42705 28.2366 5
      vertex -2.42705 21.7634 5
      vertex -0.927052 22.8532 5
    endloop
  endfacet
  facet normal 0 0 1
    outer loop
      vertex -3 30 5
      vertex -2.42705 21.7634 5
      vertex -2.42705 28.2366 5
    endloop
  endfacet
  facet normal 0 0 1
    outer loop
      vertex -2.42705 21.7634 5
      vertex -3 30 5
      vertex -3 20 5
    endloop
  endfacet
  facet normal -0 0 1
    outer loop
      vertex 2.42705 38.2366 5
      vertex 3 30 5
      vertex 3 40 5
    endloop
  endfacet
  facet normal 0 0 1
    outer loop
      vertex 2.42705 38.2366 5
      vertex 2.42705 31.7634 5
      vertex 3 30 5
    endloop
  endfacet
  facet normal -0 0 1
    outer loop
      vertex 0.927051 37.1468 5
      vertex 2.42705 31.7634 5
      vertex 2.42705 38.2366 5
    endloop
  endfacet
  facet normal 0 0 1
    outer loop
      vertex 0.927051 37.1468 5
      vertex 0.927051 32.8532 5
      vertex 2.42705 31.7634 5
    endloop
  endfacet
  facet normal -0 0 1
    outer loop
      vertex -0.927052 37.1468 5
      vertex 0.927051 32.8532 5
      vertex 0.927051 37.1468 5
    endloop
  endfacet
  facet normal 0 0 1
    outer loop
      vertex -0.927052 37.1468 5
      vertex -0.927052 32.8532 5
      vertex 0.927051 32.8532 5
    endloop
  endfacet
  facet normal 0 0 1
    outer loop
      vertex -2.42705 38.2366 5
      vertex -0.927052 32.8532 5
      vertex -0.927052 37.1468 5
    endloop
  endfacet
  facet normal 0 0 1
    outer loop
      vertex -2.42705 38.2366 5
      vertex -2.42705 31.7634 5
      vertex -0.927052 32.8532 5
    endloop
  endfacet
  facet normal 0 0 1
    outer loop
      vertex -3 40 5
      vertex -2.42705 31.7634 5
      vertex -2.42705 38.2366 5
    endloop
  endfacet
  facet normal 0 0 1
    outer loop
      vertex -2.42705 31.7634 5
      vertex -3 40 5
      vertex -3 30 5
    endloop
  endfacet
  facet normal 0 0 1
    outer loop
      vertex 3 30 5
      vertex 5 50 5
      vertex 3 40 5
    endloop
  endfacet
  facet normal 0 0 1
    outer loop
      vertex 5 50 5
      vertex 2.42705 41.7634 5
      vertex 3 40 5
    endloop
  endfacet
  facet normal 0 0 1
    outer loop
      vertex 5 50 5
      vertex 0.927051 42.8532 5
      vertex 2.42705 41.7634 5
    endloop
  endfacet
  facet normal 0 0 1
    outer loop
      vertex 5 50 5
      vertex -0.927052 42.8532 5
      vertex 0.927051 42.8532 5
    endloop
  endfacet
  facet normal -0 0 1
    outer loop
      vertex -5 50 5
      vertex -0.927052 42.8532 5
      vertex 5 50 5
    endloop
  endfacet
  facet normal 0 0 1
    outer loop
      vertex -5 50 5
      vertex -3 30 5
      vertex -3 40 5
    endloop
  endfacet
  facet normal 0 0 1
    outer loop
      vertex -3 30 5
      vertex -5 50 5
      vertex -3 20 5
    endloop
  endfacet
  facet normal 0 0 1
    outer loop
      vertex -3 20 5
      vertex -5 50 5
      vertex -3 10 5
    endloop
  endfacet
  facet normal 0 0 1
    outer loop
      vertex -3 10 5
      vertex -5 50 5
      vertex -3 0 5
    endloop
  endfacet
  facet normal 0 0 1
    outer loop
      vertex -3 0 5
      vertex -5 50 5
      vertex -3 -10 5
    endloop
  endfacet
  facet normal 0 0 1
    outer loop
      vertex -5 -50 5
      vertex -3 -10 5
      vertex -5 50 5
    endloop
  endfacet
  facet normal 0 0 1
    outer loop
      vertex -3 -10 5
      vertex -5 -50 5
      vertex -3 -20 5
    endloop
  endfacet
  facet normal 0 0 1
    outer loop
      vertex -3 -20 5
      vertex -5 -50 5
      vertex -3 -30 5
    endloop
  endfacet
  facet normal 0 0 1
    outer loop
      vertex -2.42705 41.7634 5
      vertex -5 50 5
      vertex -3 40 5
    endloop
  endfacet
  facet normal 0 0 1
    outer loop
      vertex -0.927052 42.8532 5
      vertex -5 50 5
      vertex -2.42705 41.7634 5
    endloop
  endfacet
  facet normal 0 0 1
    outer loop
      vertex 3 20 5
      vertex 5 50 5
      vertex 3 30 5
    endloop
  endfacet
  facet normal 0 0 1
    outer loop
      vertex 3 10 5
      vertex 5 50 5
      vertex 3 20 5
    endloop
  endfacet
  facet normal 0 0 1
    outer loop
      vertex 5 50 5
      vertex 3 10 5
      vertex 5 -50 5
    endloop
  endfacet
  facet normal -0 0 1
    outer loop
      vertex 3 0 5
      vertex 5 -50 5
      vertex 3 10 5
    endloop
  endfacet
  facet normal -0 0 1
    outer loop
      vertex 3 -10 5
      vertex 5 -50 5
      vertex 3 0 5
    endloop
  endfacet
  facet normal -0 0 1
    outer loop
      vertex 3 -20 5
      vertex 5 -50 5
      vertex 3 -10 5
    endloop
  endfacet
  facet normal -0 0 1
    outer loop
      vertex 3 -30 5
      vertex 5 -50 5
      vertex 3 -20 5
    endloop
  endfacet
  facet normal -0 0 1
    outer loop
      vertex 3 -40 5
      vertex 5 -50 5
      vertex 3 -30 5
    endloop
  endfacet
  facet normal -0 0 1
    outer loop
      vertex 2.42705 -41.7634 5
      vertex 5 -50 5
      vertex 3 -40 5
    endloop
  endfacet
  facet normal -0 0 1
    outer loop
      vertex 0.927051 -42.8532 5
      vertex 5 -50 5
      vertex 2.42705 -41.7634 5
    endloop
  endfacet
  facet normal -0 0 1
    outer loop
      vertex -0.927052 -42.8532 5
      vertex 5 -50 5
      vertex 0.927051 -42.8532 5
    endloop
  endfacet
  facet normal 0 0 1
    outer loop
      vertex -5 -50 5
      vertex -0.927052 -42.8532 5
      vertex -2.42705 -41.7634 5
    endloop
  endfacet
  facet normal 0 0 1
    outer loop
      vertex -0.927052 -42.8532 5
      vertex -5 -50 5
      vertex 5 -50 5
    endloop
  endfacet
  facet normal 0 0 1
    outer loop
      vertex -3 -40 5
      vertex -5 -50 5
      vertex -2.42705 -41.7634 5
    endloop
  endfacet
  facet normal 0 0 1
    outer loop
      vertex -3 -30 5
      vertex -5 -50 5
      vertex -3 -40 5
    endloop
  endfacet
  facet normal 1 -0 0
    outer loop
      vertex 5 -50 5
      vertex 5 50 0
      vertex 5 50 5
    endloop
  endfacet
  facet normal 1 0 0
    outer loop
      vertex 5 50 0
      vertex 5 -50 5
      vertex 5 -50 0
    endloop
  endfacet
  facet normal 0 1 -0
    outer loop
      vertex 5 50 0
      vertex -5 50 5
      vertex 5 50 5
    endloop
  endfacet
  facet normal 0 1 0
    outer loop
      vertex -5 50 5
      vertex 5 50 0
      vertex -5 50 0
    endloop
  endfacet
  facet normal 0 0 -1
    outer loop
      vertex 2.42705 31.7634 0
      vertex 3 40 0
      vertex 3 30 0
    endloop
  endfacet
  facet normal 0 0 -1
    outer loop
      vertex 2.42705 31.7634 0
      vertex 2.42705 38.2366 0
      vertex 3 40 0
    endloop
  endfacet
  facet normal 0 0 -1
    outer loop
      vertex 0.927051 32.8532 0
      vertex 2.42705 38.2366 0
      vertex 2.42705 31.7634 0
    endloop
  endfacet
  facet normal 0 0 -1
    outer loop
      vertex 0.927051 32.8532 0
      vertex 0.927051 37.1468 0
      vertex 2.42705 38.2366 0
    endloop
  endfacet
  facet normal 0 0 -1
    outer loop
      vertex -0.927052 32.8532 0
      vertex 0.927051 37.1468 0
      vertex 0.927051 32.8532 0
    endloop
  endfacet
  facet normal 0 0 -1
    outer loop
      vertex -0.927052 32.8532 0
      vertex -0.927052 37.1468 0
      vertex 0.927051 37.1468 0
    endloop
  endfacet
  facet normal 0 0 -1
    outer loop
      vertex -2.42705 31.7634 0
      vertex -0.927052 37.1468 0
      vertex -0.927052 32.8532 0
    endloop
  endfacet
  facet normal 0 0 -1
    outer loop
      vertex -2.42705 31.7634 0
      vertex -2.42705 38.2366 0
      vertex -0.927052 37.1468 0
    endloop
  endfacet
  facet normal 0 0 -1
    outer loop
      vertex -3 30 0
      vertex -2.42705 38.2366 0
      vertex -2.42705 31.7634 0
    endloop
  endfacet
  facet normal -0 0 -1
    outer loop
      vertex -2.42705 38.2366 0
      vertex -3 30 0
      vertex -3 40 0
    endloop
  endfacet
  facet normal 0 0 -1
    outer loop
      vertex 2.42705 21.7634 0
      vertex 3 30 0
      vertex 3 20 0
    endloop
  endfacet
  facet normal 0 0 -1
    outer loop
      vertex 2.42705 21.7634 0
      vertex 2.42705 28.2366 0
      vertex 3 30 0
    endloop
  endfacet
  facet normal 0 0 -1
    outer loop
      vertex 0.927051 22.8532 0
      vertex 2.42705 28.2366 0
      vertex 2.42705 21.7634 0
    endloop
  endfacet
  facet normal 0 0 -1
    outer loop
      vertex 0.927051 22.8532 0
      vertex 0.927051 27.1468 0
      vertex 2.42705 28.2366 0
    endloop
  endfacet
  facet normal 0 0 -1
    outer loop
      vertex -0.927052 22.8532 0
      vertex 0.927051 27.1468 0
      vertex 0.927051 22.8532 0
    endloop
  endfacet
  facet normal 0 0 -1
    outer loop
      vertex -0.927052 22.8532 0
      vertex -0.927052 27.1468 0
      vertex 0.927051 27.1468 0
    endloop
  endfacet
  facet normal 0 0 -1
    outer loop
      vertex -2.42705 21.7634 0
      vertex -0.927052 27.1468 0
      vertex -0.927052 22.8532 0
    endloop
  endfacet
  facet normal 0 0 -1
    outer loop
      vertex -2.42705 21.7634 0
      vertex -2.42705 28.2366 0
      vertex -0.927052 27.1468 0
    endloop
  endfacet
  facet normal 0 0 -1
    outer loop
      vertex -3 20 0
      vertex -2.42705 28.2366 0
      vertex -2.42705 21.7634 0
    endloop
  endfacet
  facet normal -0 0 -1
    outer loop
      vertex -2.42705 28.2366 0
      vertex -3 20 0
      vertex -3 30 0
    endloop
  endfacet
  facet normal 0 0 -1
    outer loop
      vertex 2.42705 11.7634 0
      vertex 3 20 0
      vertex 3 10 0
    endloop
  endfacet
  facet normal 0 0 -1
    outer loop
      vertex 2.42705 11.7634 0
      vertex 2.42705 18.2366 0
      vertex 3 20 0
    endloop
  endfacet
  facet normal 0 0 -1
    outer loop
      vertex 0.927051 12.8532 0
      vertex 2.42705 18.2366 0
      vertex 2.42705 11.7634 0
    endloop
  endfacet
  facet normal 0 0 -1
    outer loop
      vertex 0.927051 12.8532 0
      vertex 0.927051 17.1468 0
      vertex 2.42705 18.2366 0
    endloop
  endfacet
  facet normal 0 0 -1
    outer loop
      vertex -0.927052 12.8532 0
      vertex 0.927051 17.1468 0
      vertex 0.927051 12.8532 0
    endloop
  endfacet
  facet normal 0 0 -1
    outer loop
      vertex -0.927052 12.8532 0
      vertex -0.927052 17.1468 0
      vertex 0.927051 17.1468 0
    endloop
  endfacet
  facet normal 0 0 -1
    outer loop
      vertex -2.42705 11.7634 0
      vertex -0.927052 17.1468 0
      vertex -0.927052 12.8532 0
    endloop
  endfacet
  facet normal 0 0 -1
    outer loop
      vertex -2.42705 11.7634 0
      vertex -2.42705 18.2366 0
      vertex -0.927052 17.1468 0
    endloop
  endfacet
  facet normal 0 0 -1
    outer loop
      vertex -3 10 0
      vertex -2.42705 18.2366 0
      vertex -2.42705 11.7634 0
    endloop
  endfacet
  facet normal -0 0 -1
    outer loop
      vertex -2.42705 18.2366 0
      vertex -3 10 0
      vertex -3 20 0
    endloop
  endfacet
  facet normal 0 0 -1
    outer loop
      vertex 2.42705 1.76336 0
      vertex 3 10 0
      vertex 3 0 0
    endloop
  endfacet
  facet normal 0 0 -1
    outer loop
      vertex 2.42705 1.76336 0
      vertex 2.42705 8.23664 0
      vertex 3 10 0
    endloop
  endfacet
  facet normal 0 0 -1
    outer loop
      vertex 0.927051 2.85317 0
      vertex 2.42705 8.23664 0
      vertex 2.42705 1.76336 0
    endloop
  endfacet
  facet normal 0 0 -1
    outer loop
      vertex 0.927051 2.85317 0
      vertex 0.927051 7.14683 0
      vertex 2.42705 8.23664 0
    endloop
  endfacet
  facet normal 0 0 -1
    outer loop
      vertex -0.927052 2.85317 0
      vertex 0.927051 7.14683 0
      vertex 0.927051 2.85317 0
    endloop
  endfacet
  facet normal 0 0 -1
    outer loop
      vertex -0.927052 2.85317 0
      vertex -0.927052 7.14683 0
      vertex 0.927051 7.14683 0
    endloop
  endfacet
  facet normal 0 0 -1
    outer loop
      vertex -2.42705 1.76336 0
      vertex -0.927052 7.14683 0
      vertex -0.927052 2.85317 0
    endloop
  endfacet
  facet normal 0 0 -1
    outer loop
      vertex -2.42705 1.76336 0
      vertex -2.42705 8.23664 0
      vertex -0.927052 7.14683 0
    endloop
  endfacet
  facet normal 0 0 -1
    outer loop
      vertex -3 0 0
      vertex -2.42705 8.23664 0
      vertex -2.42705 1.76336 0
    endloop
  endfacet
  facet normal -0 0 -1
    outer loop
      vertex -2.42705 8.23664 0
      vertex -3 0 0
      vertex -3 10 0
    endloop
  endfacet
  facet normal 0 0 -1
    outer loop
      vertex 2.42705 -8.23664 0
      vertex 3 0 0
      vertex 3 -10 0
    endloop
  endfacet
  facet normal 0 0 -1
    outer loop
      vertex 2.42705 -8.23664 0
      vertex 2.42705 -1.76336 0
      vertex 3 0 0
    endloop
  endfacet
  facet normal 0 0 -1
    outer loop
      vertex 0.927051 -7.14683 0
      vertex 2.42705 -1.76336 0
      vertex 2.42705 -8.23664 0
    endloop
  endfacet
  facet normal 0 0 -1
    outer loop
      vertex 0.927051 -7.14683 0
      vertex 0.927051 -2.85317 0
      vertex 2.42705 -1.76336 0
    endloop
  endfacet
  facet normal 0 0 -1
    outer loop
      vertex -0.927052 -7.14683 0
      vertex 0.927051 -2.85317 0
      vertex 0.927051 -7.14683 0
    endloop
  endfacet
  facet normal 0 0 -1
    outer loop
      vertex -0.927052 -7.14683 0
      vertex -0.927052 -2.85317 0
      vertex 0.927051 -2.85317 0
    endloop
  endfacet
  facet normal 0 0 -1
    outer loop
      vertex -2.42705 -8.23664 0
      vertex -0.927052 -2.85317 0
      vertex -0.927052 -7.14683 0
    endloop
  endfacet
  facet normal 0 0 -1
    outer loop
      vertex -2.42705 -8.23664 0
      vertex -2.42705 -1.76336 0
      vertex -0.927052 -2.85317 0
    endloop
  endfacet
  facet normal 0 0 -1
    outer loop
      vertex -3 -10 0
      vertex -2.42705 -1.76336 0
      vertex -2.42705 -8.23664 0
    endloop
  endfacet
  facet normal -0 0 -1
    outer loop
      vertex -2.42705 -1.76336 0
      vertex -3 -10 0
      vertex -3 0 0
    endloop
  endfacet
  facet normal 0 0 -1
    outer loop
      vertex 2.42705 -18.2366 0
      vertex 3 -10 0
      vertex 3 -20 0
    endloop
  endfacet
  facet normal 0 0 -1
    outer loop
      vertex 2.42705 -18.2366 0
      vertex 2.42705 -11.7634 0
      vertex 3 -10 0
    endloop
  endfacet
  facet normal 0 0 -1
    outer loop
      vertex 0.927051 -17.1468 0
      vertex 2.42705 -11.7634 0
      vertex 2.42705 -18.2366 0
    endloop
  endfacet
  facet normal 0 0 -1
    outer loop
      vertex 0.927051 -17.1468 0
      vertex 0.927051 -12.8532 0
      vertex 2.42705 -11.7634 0
    endloop
  endfacet
  facet normal 0 0 -1
    outer loop
      vertex -0.927052 -17.1468 0
      vertex 0.927051 -12.8532 0
      vertex 0.927051 -17.1468 0
    endloop
  endfacet
  facet normal 0 0 -1
    outer loop
      vertex -0.927052 -17.1468 0
      vertex -0.927052 -12.8532 0
      vertex 0.927051 -12.8532 0
    endloop
  endfacet
  facet normal 0 0 -1
    outer loop
      vertex -2.42705 -18.2366 0
      vertex -0.927052 -12.8532 0
      vertex -0.927052 -17.1468 0
    endloop
  endfacet
  facet normal 0 0 -1
    outer loop
      vertex -2.42705 -18.2366 0
      vertex -2.42705 -11.7634 0
      vertex -0.927052 -12.8532 0
    endloop
  endfacet
  facet normal 0 0 -1
    outer loop
      vertex -3 -20 0
      vertex -2.42705 -11.7634 0
      vertex -2.42705 -18.2366 0
    endloop
  endfacet
  facet normal -0 0 -1
    outer loop
      vertex -2.42705 -11.7634 0
      vertex -3 -20 0
      vertex -3 -10 0
    endloop
  endfacet
  facet normal 0 0 -1
    outer loop
      vertex 2.42705 -28.2366 0
      vertex 3 -20 0
      vertex 3 -30 0
    endloop
  endfacet
  facet normal 0 0 -1
    outer loop
      vertex 2.42705 -28.2366 0
      vertex 2.42705 -21.7634 0
      vertex 3 -20 0
    endloop
  endfacet
  facet normal 0 0 -1
    outer loop
      vertex 0.927051 -27.1468 0
      vertex 2.42705 -21.7634 0
      vertex 2.42705 -28.2366 0
    endloop
  endfacet
  facet normal 0 0 -1
    outer loop
      vertex 0.927051 -27.1468 0
      vertex 0.927051 -22.8532 0
      vertex 2.42705 -21.7634 0
    endloop
  endfacet
  facet normal 0 0 -1
    outer loop
      vertex -0.927052 -27.1468 0
      vertex 0.927051 -22.8532 0
      vertex 0.927051 -27.1468 0
    endloop
  endfacet
  facet normal 0 0 -1
    outer loop
      vertex -0.927052 -27.1468 0
      vertex -0.927052 -22.8532 0
      vertex 0.927051 -22.8532 0
    endloop
  endfacet
  facet normal 0 0 -1
    outer loop
      vertex -2.42705 -28.2366 0
      vertex -0.927052 -22.8532 0
      vertex -0.927052 -27.1468 0
    endloop
  endfacet
  facet normal 0 0 -1
    outer loop
      vertex -2.42705 -28.2366 0
      vertex -2.42705 -21.7634 0
      vertex -0.927052 -22.8532 0
    endloop
  endfacet
  facet normal 0 0 -1
    outer loop
      vertex -3 -30 0
      vertex -2.42705 -21.7634 0
      vertex -2.42705 -28.2366 0
    endloop
  endfacet
  facet normal -0 0 -1
    outer loop
      vertex -2.42705 -21.7634 0
      vertex -3 -30 0
      vertex -3 -20 0
    endloop
  endfacet
  facet normal 0 0 -1
    outer loop
      vertex 2.42705 -38.2366 0
      vertex 3 -30 0
      vertex 3 -40 0
    endloop
  endfacet
  facet normal 0 0 -1
    outer loop
      vertex 2.42705 -38.2366 0
      vertex 2.42705 -31.7634 0
      vertex 3 -30 0
    endloop
  endfacet
  facet normal 0 0 -1
    outer loop
      vertex 0.927051 -37.1468 0
      vertex 2.42705 -31.7634 0
      vertex 2.42705 -38.2366 0
    endloop
  endfacet
  facet normal 0 0 -1
    outer loop
      vertex 0.927051 -37.1468 0
      vertex 0.927051 -32.8532 0
      vertex 2.42705 -31.7634 0
    endloop
  endfacet
  facet normal 0 0 -1
    outer loop
      vertex -0.927052 -37.1468 0
      vertex 0.927051 -32.8532 0
      vertex 0.927051 -37.1468 0
    endloop
  endfacet
  facet normal 0 0 -1
    outer loop
      vertex -0.927052 -37.1468 0
      vertex -0.927052 -32.8532 0
      vertex 0.927051 -32.8532 0
    endloop
  endfacet
  facet normal 0 0 -1
    outer loop
      vertex -2.42705 -38.2366 0
      vertex -0.927052 -32.8532 0
      vertex -0.927052 -37.1468 0
    endloop
  endfacet
  facet normal 0 0 -1
    outer loop
      vertex -2.42705 -38.2366 0
      vertex -2.42705 -31.7634 0
      vertex -0.927052 -32.8532 0
    endloop
  endfacet
  facet normal 0 0 -1
    outer loop
      vertex -3 -40 0
      vertex -2.42705 -31.7634 0
      vertex -2.42705 -38.2366 0
    endloop
  endfacet
  facet normal -0 0 -1
    outer loop
      vertex -2.42705 -31.7634 0
      vertex -3 -40 0
      vertex -3 -30 0
    endloop
  endfacet
  facet normal 0 0 -1
    outer loop
      vertex 3 -30 0
      vertex 5 -50 0
      vertex 3 -40 0
    endloop
  endfacet
  facet normal 0 0 -1
    outer loop
      vertex 5 -50 0
      vertex 2.42705 -41.7634 0
      vertex 3 -40 0
    endloop
  endfacet
  facet normal 0 0 -1
    outer loop
      vertex 5 -50 0
      vertex 0.927051 -42.8532 0
      vertex 2.42705 -41.7634 0
    endloop
  endfacet
  facet normal 0 0 -1
    outer loop
      vertex 5 -50 0
      vertex -0.927052 -42.8532 0
      vertex 0.927051 -42.8532 0
    endloop
  endfacet
  facet normal 0 0 -1
    outer loop
      vertex -5 -50 0
      vertex -0.927052 -42.8532 0
      vertex 5 -50 0
    endloop
  endfacet
  facet normal 0 0 -1
    outer loop
      vertex -5 -50 0
      vertex -3 -30 0
      vertex -3 -40 0
    endloop
  endfacet
  facet normal -0 0 -1
    outer loop
      vertex -3 -30 0
      vertex -5 -50 0
      vertex -3 -20 0
    endloop
  endfacet
  facet normal -0 0 -1
    outer loop
      vertex -3 -20 0
      vertex -5 -50 0
      vertex -3 -10 0
    endloop
  endfacet
  facet normal -0 0 -1
    outer loop
      vertex -3 -10 0
      vertex -5 -50 0
      vertex -3 0 0
    endloop
  endfacet
  facet normal -0 0 -1
    outer loop
      vertex -3 0 0
      vertex -5 -50 0
      vertex -3 10 0
    endloop
  endfacet
  facet normal 0 0 -1
    outer loop
      vertex -5 50 0
      vertex -3 10 0
      vertex -5 -50 0
    endloop
  endfacet
  facet normal 0 0 -1
    outer loop
      vertex -3 10 0
      vertex -5 50 0
      vertex -3 20 0
    endloop
  endfacet
  facet normal 0 0 -1
    outer loop
      vertex -3 20 0
      vertex -5 50 0
      vertex -3 30 0
    endloop
  endfacet
  facet normal -0 0 -1
    outer loop
      vertex -2.42705 -41.7634 0
      vertex -5 -50 0
      vertex -3 -40 0
    endloop
  endfacet
  facet normal -0 0 -1
    outer loop
      vertex -0.927052 -42.8532 0
      vertex -5 -50 0
      vertex -2.42705 -41.7634 0
    endloop
  endfacet
  facet normal 0 0 -1
    outer loop
      vertex 3 -20 0
      vertex 5 -50 0
      vertex 3 -30 0
    endloop
  endfacet
  facet normal 0 0 -1
    outer loop
      vertex 3 -10 0
      vertex 5 -50 0
      vertex 3 -20 0
    endloop
  endfacet
  facet normal 0 0 -1
    outer loop
      vertex 5 -50 0
      vertex 3 -10 0
      vertex 5 50 0
    endloop
  endfacet
  facet normal 0 0 -1
    outer loop
      vertex 3 0 0
      vertex 5 50 0
      vertex 3 -10 0
    endloop
  endfacet
  facet normal 0 0 -1
    outer loop
      vertex 3 10 0
      vertex 5 50 0
      vertex 3 0 0
    endloop
  endfacet
  facet normal 0 0 -1
    outer loop
      vertex 3 20 0
      vertex 5 50 0
      vertex 3 10 0
    endloop
  endfacet
  facet normal 0 0 -1
    outer loop
      vertex 3 30 0
      vertex 5 50 0
      vertex 3 20 0
    endloop
  endfacet
  facet normal 0 0 -1
    outer loop
      vertex 3 40 0
      vertex 5 50 0
      vertex 3 30 0
    endloop
  endfacet
  facet normal 0 0 -1
    outer loop
      vertex 2.42705 41.7634 0
      vertex 5 50 0
      vertex 3 40 0
    endloop
  endfacet
  facet normal 0 0 -1
    outer loop
      vertex 0.927051 42.8532 0
      vertex 5 50 0
      vertex 2.42705 41.7634 0
    endloop
  endfacet
  facet normal 0 0 -1
    outer loop
      vertex -0.927052 42.8532 0
      vertex 5 50 0
      vertex 0.927051 42.8532 0
    endloop
  endfacet
  facet normal 0 0 -1
    outer loop
      vertex -5 50 0
      vertex -0.927052 42.8532 0
      vertex -2.42705 41.7634 0
    endloop
  endfacet
  facet normal 0 0 -1
    outer loop
      vertex -0.927052 42.8532 0
      vertex -5 50 0
      vertex 5 50 0
    endloop
  endfacet
  facet normal 0 0 -1
    outer loop
      vertex -3 40 0
      vertex -5 50 0
      vertex -2.42705 41.7634 0
    endloop
  endfacet
  facet normal 0 0 -1
    outer loop
      vertex -3 30 0
      vertex -5 50 0
      vertex -3 40 0
    endloop
  endfacet
  facet normal 0 -1 0
    outer loop
      vertex -5 -50 0
      vertex 5 -50 5
      vertex -5 -50 5
    endloop
  endfacet
  facet normal 0 -1 -0
    outer loop
      vertex 5 -50 5
      vertex -5 -50 0
      vertex 5 -50 0
    endloop
  endfacet
endsolid OpenSCAD_Model
