  0
SECTION
  2
HEADER
  9
$ACADVER
  1
AC1014
  9
$HANDSEED
  5
FFFF
  9
$MEASUREMENT
 70
     1
  0
ENDSEC
  0
SECTION
  2
TABLES
  0
TABLE
  2
VPORT
  5
8
330
0
100
AcDbSymbolTable
 70
     4
  0
VPORT
  5
2E
330
8
100
AcDbSymbolTableRecord
100
AcDbViewportTableRecord
  2
*ACTIVE
 70
     0
 10
0.0
 20
0.0
 11
1.0
 21
1.0
 12
210.0
 22
148.5
 13
0.0
 23
0.0
 14
10.0
 24
10.0
 15
10.0
 25
10.0
 16
0.0
 26
0.0
 36
1.0
 17
0.0
 27
0.0
 37
0.0
 40
341.0
 41
1.24
 42
50.0
 43
0.0
 44
0.0
 50
0.0
 51
0.0
 71
     0
 72
   100
 73
     1
 74
     3
 75
     0
 76
     0
 77
     0
 78
     0
  0
ENDTAB
  0
TABLE
  2
LTYPE
  5
5
330
0
100
AcDbSymbolTable
 70
     1
  0
LTYPE
  5
14
330
5
100
AcDbSymbolTableRecord
100
AcDbLinetypeTableRecord
  2
BYBLOCK
 70
     0
  3

 72
    65
 73
     0
 40
0.0
  0
LTYPE
  5
15
330
5
100
AcDbSymbolTableRecord
100
AcDbLinetypeTableRecord
  2
BYLAYER
 70
     0
  3

 72
    65
 73
     0
 40
0.0
  0
LTYPE
  5
16
330
5
100
AcDbSymbolTableRecord
100
AcDbLinetypeTableRecord
  2
CONTINUOUS
 70
     0
  3
Solid line
 72
    65
 73
     0
 40
0.0
  0
ENDTAB
  0
TABLE
  2
LAYER
  5
2
100
AcDbSymbolTable
 70
2
  0
LAYER
  5
50
100
AcDbSymbolTableRecord
100
AcDbLayerTableRecord
  2
0
 70
0
  6
CONTINUOUS
  0
LAYER
  5
51
100
AcDbSymbolTableRecord
100
AcDbLayerTableRecord
  2
Capa_1
 70
0
  6
CONTINUOUS
  0
ENDTAB
  0
TABLE
  2
STYLE
  5
3
330
0
100
AcDbSymbolTable
 70
     1
  0
STYLE
  5
11
330
3
100
AcDbSymbolTableRecord
100
AcDbTextStyleTableRecord
  2
STANDARD
 70
     0
 40
0.0
 41
1.0
 50
0.0
 71
     0
 42
2.5
  3
txt
  4

  0
ENDTAB
  0
TABLE
  2
VIEW
  5
6
330
0
100
AcDbSymbolTable
 70
     0
  0
ENDTAB
  0
TABLE
  2
UCS
  5
7
330
0
100
AcDbSymbolTable
 70
     0
  0
ENDTAB
  0
TABLE
  2
APPID
  5
9
330
0
100
AcDbSymbolTable
 70
     2
  0
APPID
  5
12
330
9
100
AcDbSymbolTableRecord
100
AcDbRegAppTableRecord
  2
ACAD
 70
     0
  0
ENDTAB
  0
TABLE
  2
DIMSTYLE
  5
A
330
0
100
AcDbSymbolTable
 70
     1
  0
DIMSTYLE
105
27
330
A
100
AcDbSymbolTableRecord
100
AcDbDimStyleTableRecord
  2
ISO-25
 70
     0
  3

  4

  5

  6

  7

 40
1.0
 41
2.5
 42
0.625
 43
3.75
 44
1.25
 45
0.0
 46
0.0
 47
0.0
 48
0.0
140
2.5
141
2.5
142
0.0
143
0.03937007874016
144
1.0
145
0.0
146
1.0
147
0.625
 71
     0
 72
     0
 73
     0
 74
     0
 75
     0
 76
     0
 77
     1
 78
     8
170
     0
171
     3
172
     1
173
     0
174
     0
175
     0
176
     0
177
     0
178
     0
270
     2
271
     2
272
     2
273
     2
274
     3
340
11
275
     0
280
     0
281
     0
282
     0
283
     0
284
     8
285
     0
286
     0
287
     3
288
     0
  0
ENDTAB
  0
TABLE
  2
BLOCK_RECORD
  5
1
330
0
100
AcDbSymbolTable
 70
     1
  0
BLOCK_RECORD
  5
1F
330
1
100
AcDbSymbolTableRecord
100
AcDbBlockTableRecord
  2
*MODEL_SPACE
  0
BLOCK_RECORD
  5
1B
330
1
100
AcDbSymbolTableRecord
100
AcDbBlockTableRecord
  2
*PAPER_SPACE
  0
ENDTAB
  0
ENDSEC
  0
SECTION
  2
BLOCKS
  0
BLOCK
  5
20
330
1F
100
AcDbEntity
  8
0
100
AcDbBlockBegin
  2
*MODEL_SPACE
 70
     0
 10
0.0
 20
0.0
 30
0.0
  3
*MODEL_SPACE
  1

  0
ENDBLK
  5
21
330
1F
100
AcDbEntity
  8
0
100
AcDbBlockEnd
  0
BLOCK
  5
1C
330
1B
100
AcDbEntity
 67
     1
  8
0
100
AcDbBlockBegin
  2
*PAPER_SPACE
  1

  0
ENDBLK
  5
1D
330
1B
100
AcDbEntity
 67
     1
  8
0
100
AcDbBlockEnd
  0
ENDSEC
  0
SECTION
  2
ENTITIES
  0
LWPOLYLINE
  5
100
100
AcDbEntity
  8
Capa_1
 62
7
100
AcDbPolyline
 90
33
 70
0
 10
104.912200
 20
158.508651
 30
0.0
 10
104.512553
 20
157.704281
 30
0.0
 10
103.366353
 20
156.955088
 30
0.0
 10
101.552694
 20
156.277119
 30
0.0
 10
99.150686
 20
155.686431
 30
0.0
 10
96.239426
 20
155.199064
 30
0.0
 10
92.898016
 20
154.831078
 30
0.0
 10
89.205562
 20
154.598515
 30
0.0
 10
85.241161
 20
154.517427
 30
0.0
 10
81.276763
 20
154.598515
 30
0.0
 10
77.584306
 20
154.831078
 30
0.0
 10
74.242899
 20
155.199064
 30
0.0
 10
71.331638
 20
155.686431
 30
0.0
 10
68.929631
 20
156.277119
 30
0.0
 10
67.115972
 20
156.955088
 30
0.0
 10
65.969772
 20
157.704281
 30
0.0
 10
65.570125
 20
158.508651
 30
0.0
 10
65.969772
 20
159.313021
 30
0.0
 10
67.115972
 20
160.062216
 30
0.0
 10
68.929631
 20
160.740184
 30
0.0
 10
71.331638
 20
161.330873
 30
0.0
 10
74.242899
 20
161.818239
 30
0.0
 10
77.584306
 20
162.186226
 30
0.0
 10
81.276763
 20
162.418789
 30
0.0
 10
85.241161
 20
162.499877
 30
0.0
 10
89.205562
 20
162.418789
 30
0.0
 10
92.898016
 20
162.186226
 30
0.0
 10
96.239426
 20
161.818239
 30
0.0
 10
99.150686
 20
161.330873
 30
0.0
 10
101.552694
 20
160.740184
 30
0.0
 10
103.366353
 20
160.062216
 30
0.0
 10
104.512553
 20
159.313021
 30
0.0
 10
104.912200
 20
158.508651
 30
0.0
  0
LWPOLYLINE
  5
101
100
AcDbEntity
  8
Capa_1
 62
7
100
AcDbPolyline
 90
33
 70
0
 10
107.477986
 20
179.605134
 30
0.0
 10
107.315810
 20
178.858219
 30
0.0
 10
106.850685
 20
178.162538
 30
0.0
 10
106.114709
 20
177.532997
 30
0.0
 10
105.139981
 20
176.984498
 30
0.0
 10
103.958602
 20
176.531946
 30
0.0
 10
102.602668
 20
176.190242
 30
0.0
 10
101.104279
 20
175.974292
 30
0.0
 10
99.495537
 20
175.898995
 30
0.0
 10
97.886794
 20
175.974292
 30
0.0
 10
96.388408
 20
176.190242
 30
0.0
 10
95.032474
 20
176.531946
 30
0.0
 10
93.851092
 20
176.984498
 30
0.0
 10
92.876364
 20
177.532997
 30
0.0
 10
92.140388
 20
178.162538
 30
0.0
 10
91.675263
 20
178.858219
 30
0.0
 10
91.513087
 20
179.605134
 30
0.0
 10
91.675263
 20
180.352049
 30
0.0
 10
92.140388
 20
181.047730
 30
0.0
 10
92.876364
 20
181.677269
 30
0.0
 10
93.851092
 20
182.225768
 30
0.0
 10
95.032474
 20
182.678320
 30
0.0
 10
96.388408
 20
183.020023
 30
0.0
 10
97.886794
 20
183.235974
 30
0.0
 10
99.495537
 20
183.311271
 30
0.0
 10
101.104279
 20
183.235974
 30
0.0
 10
102.602668
 20
183.020023
 30
0.0
 10
103.958602
 20
182.678320
 30
0.0
 10
105.139981
 20
182.225768
 30
0.0
 10
106.114709
 20
181.677269
 30
0.0
 10
106.850685
 20
181.047730
 30
0.0
 10
107.315810
 20
180.352049
 30
0.0
 10
107.477986
 20
179.605134
 30
0.0
  0
LWPOLYLINE
  5
102
100
AcDbEntity
  8
Capa_1
 62
7
100
AcDbPolyline
 90
33
 70
0
 10
75.833275
 20
182.598550
 30
0.0
 10
75.711643
 20
181.937817
 30
0.0
 10
75.362799
 20
181.322408
 30
0.0
 10
74.810818
 20
180.765508
 30
0.0
 10
74.079772
 20
180.280297
 30
0.0
 10
73.193735
 20
179.879962
 30
0.0
 10
72.176787
 20
179.577685
 30
0.0
 10
71.052995
 20
179.386652
 30
0.0
 10
69.846438
 20
179.320045
 30
0.0
 10
68.639882
 20
179.386652
 30
0.0
 10
67.516090
 20
179.577685
 30
0.0
 10
66.499142
 20
179.879962
 30
0.0
 10
65.613105
 20
180.280297
 30
0.0
 10
64.882059
 20
180.765508
 30
0.0
 10
64.330078
 20
181.322408
 30
0.0
 10
63.981234
 20
181.937817
 30
0.0
 10
63.859602
 20
182.598550
 30
0.0
 10
63.981234
 20
183.259283
 30
0.0
 10
64.330078
 20
183.874694
 30
0.0
 10
64.882059
 20
184.431594
 30
0.0
 10
65.613105
 20
184.916805
 30
0.0
 10
66.499142
 20
185.317140
 30
0.0
 10
67.516090
 20
185.619417
 30
0.0
 10
68.639882
 20
185.810450
 30
0.0
 10
69.846438
 20
185.877057
 30
0.0
 10
71.052995
 20
185.810450
 30
0.0
 10
72.176787
 20
185.619417
 30
0.0
 10
73.193735
 20
185.317140
 30
0.0
 10
74.079772
 20
184.916805
 30
0.0
 10
74.810818
 20
184.431594
 30
0.0
 10
75.362799
 20
183.874694
 30
0.0
 10
75.711643
 20
183.259283
 30
0.0
 10
75.833275
 20
182.598550
 30
0.0
  0
LWPOLYLINE
  5
103
100
AcDbEntity
  8
Capa_1
 62
7
100
AcDbPolyline
 90
33
 70
0
 10
123.157801
 20
171.195053
 30
0.0
 10
122.370094
 20
165.937913
 30
0.0
 10
120.110913
 20
161.041397
 30
0.0
 10
116.536168
 20
156.610398
 30
0.0
 10
111.801775
 20
152.749813
 30
0.0
 10
106.063638
 20
149.564540
 30
0.0
 10
99.477675
 20
147.159476
 30
0.0
 10
92.199790
 20
145.639512
 30
0.0
 10
84.385901
 20
145.109547
 30
0.0
 10
76.572008
 20
145.639512
 30
0.0
 10
69.294127
 20
147.159476
 30
0.0
 10
62.708161
 20
149.564540
 30
0.0
 10
56.970024
 20
152.749813
 30
0.0
 10
52.235631
 20
156.610398
 30
0.0
 10
48.660885
 20
161.041397
 30
0.0
 10
46.401705
 20
165.937913
 30
0.0
 10
45.613997
 20
171.195053
 30
0.0
 10
46.401705
 20
176.452193
 30
0.0
 10
48.660885
 20
181.348709
 30
0.0
 10
52.235631
 20
185.779708
 30
0.0
 10
56.970024
 20
189.640290
 30
0.0
 10
62.708161
 20
192.825563
 30
0.0
 10
69.294127
 20
195.230627
 30
0.0
 10
76.572008
 20
196.750591
 30
0.0
 10
84.385901
 20
197.280557
 30
0.0
 10
92.199790
 20
196.750591
 30
0.0
 10
99.477675
 20
195.230627
 30
0.0
 10
106.063638
 20
192.825563
 30
0.0
 10
111.801775
 20
189.640290
 30
0.0
 10
116.536168
 20
185.779708
 30
0.0
 10
120.110913
 20
181.348709
 30
0.0
 10
122.370094
 20
176.452193
 30
0.0
 10
123.157801
 20
171.195053
 30
0.0
  0
ENDSEC
  0
SECTION
  2
OBJECTS
  0
DICTIONARY
  5
C
330
0
100
AcDbDictionary
  3
ACAD_GROUP
350
D
  3
ACAD_MLINESTYLE
350
17
  0
DICTIONARY
  5
D
330
C
100
AcDbDictionary
  0
DICTIONARY
  5
1A
330
C
100
AcDbDictionary
  0
DICTIONARY
  5
17
330
C
100
AcDbDictionary
  3
STANDARD
350
18
  0
DICTIONARY
  5
19
330
C
100
AcDbDictionary
  0
ENDSEC
  0
EOF
